<?xml version="1.0" encoding="UTF-8"?><svg id="a" xmlns="http://www.w3.org/2000/svg" viewBox="0 0 46 72"
   width="100" height="100" preserveAspectRatio="xMidYMax meet"><path d="M46,66H0v2c0,2.21,1.79,4,4,4h38c2.21,0,4-1.79,4-4v-2ZM0,62h46v-22H0v22ZM27,51c0-2.21-1.79-4-4-4s-4,1.79-4,4,1.79,4,4,4,4-1.79,4-4ZM28,8h-10v8.47c0,2.82-1.48,5.41-3.88,6.86l-.23.14-11.83,6.57C.79,30.74,0,32.08,0,33.53v2.47h46v-2.47c0-1.36-.69-2.62-1.82-3.36l-.23-.14-11.83-6.57c-2.54-1.41-4.11-4.09-4.11-7v-8.47ZM31,51c0,4.42-3.58,8-8,8s-8-3.58-8-8,3.58-8,8-8,8,3.58,8,8ZM30,1c0-.55-.45-1-1-1h-12c-.55,0-1,.45-1,1v2c0,.55.45,1,1,1h12c.55,0,1-.45,1-1V1Z"/></svg>