<?xml version="1.0" encoding="UTF-8"?><svg id="a" xmlns="http://www.w3.org/2000/svg" viewBox="0 0 58.84 65.44"
   width="100" height="100" preserveAspectRatio="xMidYMax meet"><path d="M54.06,9.6l-7.73-5.09-6.95,9.74h11.44l3.24-4.65Z"/><path d="M56.24,3.33c-.5-1.71-1.94-2.98-3.7-3.27-1.76-.28-3.52.47-4.54,1.94l-.66,1,7.69,5.06c1.15-1.29,1.6-3.05,1.21-4.73h0Z"/><path d="M56.3,16.75H2.55c-1.41.02-2.55,1.16-2.55,2.58s1.14,2.56,2.55,2.58h53.75c1.41-.02,2.55-1.17,2.55-2.58s-1.14-2.56-2.55-2.58Z"/><path d="M16.89,60.06c-.25,2.53,1.13,5.41,3.24,5.38h18.58c1.76,0,3.25-2.07,3.25-4.52h0c-.02-.92.05-1.84.2-2.75h-25.48c.1.63.16,1.26.2,1.89h0Z"/><path d="M4.01,34.37c.19,2.84.97,5.61,2.3,8.12,1.15,2.2,2.79,4.11,4.8,5.58,1.94,1.47,3.45,3.45,4.36,5.71.26.62.49,1.25.68,1.89h26.55c.79-3.04,2.58-5.73,5.07-7.63,6.81-4.93,7.05-13.6,7.05-13.69v-9.94H4.01v9.96ZM36.44,50.05c1.5-3.3,3.8-6.17,6.69-8.36,3.47-2.5,3.83-7.37,3.84-7.57h0c.07-.68.66-1.18,1.34-1.13.68.05,1.2.62,1.16,1.3-.04.62-.54,6.3-4.88,9.44-2.54,1.94-4.55,4.47-5.88,7.37-.3.61-1.04.87-1.65.59-.62-.29-.89-1.02-.62-1.64h0Z"/></svg>