<?xml version="1.0" encoding="UTF-8"?><svg id="a" xmlns="http://www.w3.org/2000/svg" viewBox="0 0 99.1 89.05"
   width="100" height="100" preserveAspectRatio="xMidYMax meet"><path d="M31.66,17.09c.04.22.09.43.17.64,3.43,1.12,6.71,2.65,9.77,4.56,1.47.93,2.82,2.05,4,3.33,1.63,2.04,2.96,4.3,3.95,6.72l4.27,9.03c.79,1.82,1.72,3.57,2.78,5.25.16-.23.34-.45.52-.69.72-.98,1.47-1.95,2.27-2.91-.77-1.98-1.32-4.03-1.66-6.12-.7-4.08-.98-8.3-2.64-12.09-4.34-10-16.88-14.69-20.81-24.81-.7,1.87-.56,3.95.39,5.7.95,1.73,2.14,3.3,3.55,4.69-2.21-1.3-4.12-3.05-5.61-5.14-.67,3.39,1.56,6.59,3.7,9.38-1.62-.74-3.06-1.8-4.25-3.12.21,1.89,1.12,3.63,2.56,4.88-.62.62-1.56-.75-2.44-.5-.5.11-.59.66-.52,1.22h0Z"/><path d="M71.56,43.11c.05.3.31.53.62.53s.57-.22.62-.53v-.11c-.16,0-.3-.07-.41-.19-.09-.08-.16-.19-.19-.31-.16,0-.33.06-.45.17-.12.11-.19.27-.2.44Z"/><path d="M71.56,43.11c.05.3.31.53.62.53s.57-.22.62-.53v-.11c-.16,0-.3-.07-.41-.19-.09-.08-.16-.19-.19-.31-.16,0-.33.06-.45.17-.12.11-.19.27-.2.44Z"/><path d="M79.42,46.67c-.09-.19-.22-.38-.33-.56l-.14-.2c-.39-.61-.82-1.19-1.28-1.75.02-.22.02-.44,0-.66,0-2.81-2.27-5.09-5.08-5.11-.11-.02-.23-.02-.34,0-3.82.31-7.41,1.97-10.11,4.69-1.38,1.27-2.65,2.65-3.8,4.12-.5.62-.98,1.27-1.47,1.91l-.12.17-.34.47-.53.7-.25.33c-.25.36-.52.72-.78,1.06l-.55.72c-.09.09-.17.2-.25.3l-.28.34c-.45.5-.92,1.02-1.41,1.56l-2.3,2.3-.78.73c-.08,0-.17.16-.25.25l-.52.48-.53.34-1,1-.14.17c-.36.38-.7.75-1.02,1.12l-.84.95-.23.25-.27.3-.55.55-.02.03-.34.33c-.42.41-.84.78-1.25,1.12l-.14.12-.14.11-.53.42-.17.12-.39.28c-.29.21-.58.4-.89.58-1.99,1.12-4.26,1.66-6.55,1.56-2.41.11-4.83-.16-7.16-.81.26,1.53,1.45,2.73,2.97,3-.94.77-1.99,1.38-3.12,1.81.8,1.04,2,1.71,3.31,1.84-.94.67-2,1.16-3.12,1.42-.09.67.17,1.34.68,1.77.52.44,1.22.57,1.86.37-.09.46-.27.89-.53,1.28-.42.66-1.08,1.25-1.12,2.03s1.16,1.47,1.48.75l-.33,4.3,1.42.11c.11.78.63,1.43,1.36,1.71.73.28,1.56.13,2.15-.38.03.6.32,1.16.8,1.52.48.36,1.09.5,1.68.37,1.3-.38,1.81-1.88,2.39-3.12.72-1.52,1.79-2.85,3.12-3.88,1.68-.99,3.29-2.09,4.81-3.3,1.3-1.32,2.04-3.1,2.06-4.95,3.96,1.21,8.23.98,12.04-.66,3.81-1.64,6.91-4.57,8.77-8.28,1.09-2.37,1.85-4.88,2.27-7.45,0-.27.11-.53.16-.81.19-.98.36-2,.5-3v-.55c0-.19.08-.56.14-.86.1-.79.39-1.54.86-2.19.29-.42.61-.82.95-1.19.25-.25.52-.47.81-.66l.67-.39c.49-.27,1.02-.46,1.56-.56.4-.05.8-.05,1.2,0l.81.14.77.23c-.09-.29-.21-.58-.34-.86h0ZM72.19,41.84c.51,0,.97.31,1.17.78.2.47.09,1.02-.27,1.38-.36.36-.91.47-1.38.27-.47-.2-.78-.66-.78-1.17,0-.34.13-.66.37-.89s.56-.37.89-.37h0Z"/><path d="M71.56,43.11c.05.3.31.53.62.53s.57-.22.62-.53v-.11c-.16,0-.3-.07-.41-.19-.09-.08-.16-.19-.19-.31-.16,0-.33.06-.45.17-.12.11-.19.27-.2.44Z"/><path d="M71.56,43.11c.05.3.31.53.62.53s.57-.22.62-.53v-.11c-.16,0-.3-.07-.41-.19-.09-.08-.16-.19-.19-.31-.16,0-.33.06-.45.17-.12.11-.19.27-.2.44Z"/><path d="M4.67,25.36c2.32,1.23,4.8,2.13,7.38,2.66-3.62.35-7.28-.19-10.66-1.56,2.44,4.11,7.53,5.55,12.22,6.62-2.15.48-4.35.68-6.55.59,3.12,2.36,6.77,3.93,10.62,4.58-1.92.35-3.88.48-5.83.39,1.95,1.9,4.43,3.16,7.11,3.62l-4.31.67c1.38,1.75,3.32,2.97,5.5,3.45l-2.64.38c1.09,2.01,2.98,3.46,5.2,3.98-.52.67-1.89.3-2.19,1.09s.53,1.17,1.19,1.42l3.83,1.45c-1.05-.12-1.66,1.36-1.12,2.27.64.85,1.64,1.36,2.7,1.38,1.04.02,2.07.24,3.03.66.02.99.64,1.86,1.56,2.22.9.33,1.86.47,2.81.42-.3.49-.16,1.13.31,1.45.46.3,1.01.46,1.56.47,1.25.14,2.51.19,3.77.14,1.48-1.16,2.83-2.46,4.03-3.91,1.3-1.48,2.69-2.89,4.14-4.22.97-.92,1.91-1.81,2.77-2.7.69-.68,1.34-1.39,1.94-2.14l.77-1.06,1.16-1.56c-1.2-1.84-2.24-3.76-3.12-5.77l-4.22-9.06c-.91-2.25-2.14-4.36-3.67-6.25-1.05-1.14-2.25-2.14-3.56-2.97-2.37-1.5-4.89-2.73-7.53-3.69-1.11-.42-2.23-.81-3.36-1.17-7.81-2.5-16.17-4.05-22.78-8.89-2.27-1.4-3.89-3.65-4.5-6.25-1.38,2.35-1.27,5.29.27,7.53,1.54,2.18,3.58,3.97,5.95,5.2C5.12,15.4,2.22,13.17,0,10.33c-.09,5.88,4.69,10.94,10.12,13.2-3.69-.37-7.19-1.85-10.02-4.25.57,2.59,2.24,4.8,4.56,6.08h0Z"/><path d="M92.11,40.41c-.49-.39-1.17-.44-1.72-.14l-9.38,4.88c.11.16.2.33.3.48.2.35.38.72.53,1.09l1.72,4.31-4.38-1.56c-.18-.07-.37-.12-.56-.17l-.58-.11c-.54-.07-1.09.02-1.56.28-.22.15-.45.29-.69.41-.45.37-.83.8-1.14,1.28-.16.24-.27.51-.33.8l9.28-.2,8.5-11.34Z"/><path d="M98.63,52.64l-5.7-11.02-6.58,8.88,12.28,2.14Z"/><path d="M74.13,53.42c-.2,1.44-.44,2.86-.72,4.27-.11.58-.23,1.17-.36,1.78l2.62,5.11,5.38-11.31-6.92.16Z"/><path d="M99.08,53.78l-13.44-2.34-1.3,1.75h-2.12l-5.86,12.41c.49.41,1.19.48,1.75.17l20.11-10.33c.62-.3.97-.98.86-1.66h0Z"/></svg>