<?xml version="1.0" encoding="UTF-8"?><svg id="a" xmlns="http://www.w3.org/2000/svg" viewBox="0 0 90 64.28"
   width="100" height="100" preserveAspectRatio="xMidYMax meet"><path d="M89.33,11.1C86.73,4.31,77.34.11,64.78,0c-1.33-.01-2.14,1.48-1.41,2.59l5.02,7.73c.77,1.18.46,2.77-.71,3.57l-.27.18c-.52.36-1.23.23-1.6-.27l-5.97-8.21c-2.35-3.23-6.39-4.78-10.29-3.93-2.25.49-4.54,1.09-6.86,1.8-1.07.33-1.54,1.58-.93,2.52l7.86,12.11c.77,1.18.46,2.77-.71,3.57l-.27.18c-.52.36-1.23.23-1.6-.27l-7.78-10.7c-2.15-2.96-6.11-3.93-9.41-2.33-1.66.8-3.32,1.67-4.98,2.6-1.16.65-2.27,1.33-3.34,2.04-.84.55-1.01,1.71-.36,2.48l7.79,9.26c.91,1.08.79,2.69-.27,3.63-.47.42-1.19.38-1.62-.07l-9.62-10.29c-.61-.66-1.65-.72-2.32-.12C-.25,31.71-3.65,50.73,3.78,59.48c9.2,10.83,26.28,1.75,49.81-11.45,23.53-13.19,40-25.78,35.73-36.93h0Z"/></svg>