<?xml version="1.0" encoding="UTF-8"?><svg id="a" xmlns="http://www.w3.org/2000/svg" viewBox="0 0 59.04 58.91"
   width="100" height="100" preserveAspectRatio="xMidYMax meet"><path d="M58.67,56.41L31.22,8.56l3.67-6.4c.36-.75.03-1.65-.72-2.01-.67-.32-1.47-.1-1.89.51l-2.79,4.88-2.79-4.88c-.47-.69-1.41-.86-2.1-.39-.61.42-.83,1.22-.51,1.89l3.67,6.4L.19,56.66c-.4.74-.13,1.66.6,2.06.21.12.45.18.7.19h56c.83.02,1.53-.64,1.55-1.47.01-.38-.12-.75-.37-1.03ZM15.8,55.91c6.97-9.34,11.66-20.18,13.69-31.65,2.04,11.48,6.74,22.31,13.72,31.65H15.8Z"/></svg>