<?xml version="1.0" encoding="UTF-8"?><svg id="a" xmlns="http://www.w3.org/2000/svg" viewBox="0 0 90.81 93.42"><path d="M42.1,80.4c.34.5.47,1.31.6,1.96.5,3.24,2.94,4.89,4.37,2.67.26-.36.53-.84.82-1.12.15-.19.59-.4.9-.23,4.82,4.46,10.24,6.38,16.06,2.58,1.56-1.07,3.21-1.59,5.08-1.05,1.48.3,2.86.87,3.08,1.54.68,2.46-6.64,5.38-11.23,6.57-2.59.51-5.23-.83-7.6-1.88-3.28-1.63-2.59-2.6-6.56-2.71-2.68-.19-5.53.73-7.84-1.04-3.16-2.26-10.98-.13-11.31-5.64.06-.59.34-1.11.65-1.58,1.56-2.1,2.71-5.34,3.5-9.18,1.44-6.86,1.85-15.66,1.99-22.69.19-8.99-.06-14.13,1.29-5.84.68,12.93,11.4,28.79.19,38.73-.4.37-1.52,1.25-1.45,1.55,1.71.11,5.39-4.39,7.39-2.72l.1.13v-.03Z"/><path d="M44.12,36.08c-.43.63-.53,1.73-.85,2.49-.9,2.57-2.36.22-2.7-1.25-.41-1.45-.93-2.87-2.05-3.92-.78-.8-1.87-1.38-2.55-2.24-1.98-3.06,4.71-4.29,5.65-2.34.33.51.45,1.13.69,1.67.38.96,1.11,1.31,2.14,1.55,2.05.82,11.98,1.02,11.83-1.94-.09-.45-.71-.9-.63-1.32,1.39-.65,3.88.46,5,1.64,1.32,1.33,1.41,3.55,1.59,5.56.36,2.84.69,5.99,2.68,7.96,1.9,1.69,4.06,3.73,1.61,6.13-.48.58-1.38,1.21-.96,2.05.71,1.18,2.55,1.44,3.8,2.44,2.09,1.35,2.75,4.33,1.57,6.59-.96,2.15-3.84,4.51-1.46,6.52,1.03.88,2.48,1.53,3.13,2.8.94,1.58-.24,3.6.71,5.15.7,1.26,2.72,1.48,4.01,2.27,1.62,1.02.52,2.3-1.05,2.02-2.74-.45-6.42-2.67-6.67-5.55-.11-.95-.05-1.98-.5-2.84-.53-1.11-1.86-1.8-2.72-2.65-1.19-1.08-1.87-2.79-1.38-4.42.53-2.11,2.83-3.51,3.58-5.51.79-1.93-.77-3.53-2.45-3.98-3.02-.54-5.08-2.8-6.51-5.56-1.43-2.36-2.89-5.93-2.86-8.9.24-1.27,1.59-1.3,2.11-2.32.39-.74.29-1.94-.34-2.51-1-.96-3.26.1-4.88.34-2.13.41-4.31.21-6.42-.25-1.13-.2-2.25-.65-3.02.24l-.08.11h0ZM65.22,48.24c-.76-.52-2.33-1.88-3.22-2.47-.61-.39-1.56-.7-1.43.28.22.97.94,1.75,1.36,2.57.33.54.69,1.11,1.33,1.32.53.11,1.18,0,1.67-.19.43-.1.32-1.21.32-1.45l-.03-.06h-.01Z"/><path d="M47.6,2.29c3.44-.88,2.13,4.59,4.63,5.36.14-.54,1.33-2.41,2.1-.8,1.19,5.72,4.79,14.48-2.33,17.24-.81,2.07-.78,5.86-3.99,5.52.88-8.6-10.31-1.84-10.53-12.12,8.36-9.4,5.13-22.91,10.13-15.17h0ZM49.96,20.14c5.66.34.34-7.26-1.17-9.48-2.51,1.54.58,7.03,1.17,9.48Z"/><path d="M67.01,77.62c1.16.93,2.92,1.68,3.62,2.88.74,1.16.02,2.17-1.4,2.48-6.7.92-10.12-7.75-10.31-13.71-.38-3.2-.78-6.43-1.5-9.59-.18-1.13-2.34-8.43-.56-7.83.36.34.43.54.67.96,1.26,2.78,1.97,5.93,2.81,8.83,1.39,5.41,2.24,12.14,6.51,15.87l.14.12h.03Z"/><path d="M52.59,82.72c-1.54-1.92.48-4.31,1.28-6.2,1.55-3.87,3.08-4.99,3.8.05.3,2.19.47,4.49-1.14,5.73-1.03.75-2.73,1.24-3.82.52,0,0-.12-.1-.12-.1Z"/><path d="M22.83,81.77c1.93-1.81,4.02,3.83,4.88,2.36-9.31-8.78-.73-23.42.31-34.14,1.04,10.51-2.84,23.32,3.3,33.14-.5,5.01-6.78,1.86-8.25,5.09-3.98,1.15-5.17-2.38-8.7,2.17-4.11,3.32-16.5-4.98-7.77-5.73,4.91,3.36,8.26,4.45,12.29-1.29,1.49,7.27,3.22-.85,3.95-1.61Z"/><path d="M21.99,48.04c-18.16,1.26-3.37-1.46-9.62,10.07-.55,4.67-9.51,4.1-4.55,9.31,2.1,2.14,1.01,5.48-1.62,6.51-.53,3.14-1.12,6.57-5.23,6.94-2.66-1.1.84-2.31,2.27-2.74,1.75-1.37-1.13-4.83,1.87-5.81,4.76-1.83-4.41-8.64,1.92-10.83,5.07-.85-.48-3.19.47-5.52,5.17-2.15,1.38-15.25,8.1-12.52-4.65,2.2,5.8,3.85,7.9,1.91-1.36-2.76,1.6-3.09,3.35-1.97,2.71,2.38-3.29,3.24-2.66,6.09-.91,5.02-2.28,1.17-2.2-1.43ZM8.77,57.63c-.03,3.87,4.84-2.81,2.16-2.05-.5.6-2.02,1.53-2.16,2.05Z"/><path d="M20.69,23.33c.23-.08.36-.44.62-.8,2.03-3.11,1.52,1.45,1.46,2.87-.21,4.14,4.75,6.82,3.87,10.98-.48,1.93-1.88,3.4-3.61,3.76-1.32.36-2.49.54-2.99,2.05-.24.43-.16,2.11-.91,1.27-3.91-3.99-5.02-10.37-2.87-16.45.88-1.77,1.18.73,1.9-.09.91-1.19.76-3.97,2.41-3.54l.12-.03h0ZM18.89,36.54c.48-1.72,2.41-5.28.92-6.82-.92,1.04-4.47,7.62-1.01,6.88l.09-.06Z"/><path d="M7.89,79.26c3.55-4.9,2.81-14.82,5.79-18.44.59-.39.52.81.53,1.51-.17,4.48-.76,8.14-1.55,11.01-.34,1.23-.74,2.38-1.28,3.61-3.77,8.77-9.38,6.77-4.54,3.24.31-.24.64-.5.93-.81,0,0,.12-.14.12-.14Z"/><path d="M15.94,83.55h-.98c-.98-.03-1.95-.87-2.1-1.92v-.83c.03-1.66.39-3.32.9-4.78l.64.43c.62,1.89,1.26,3.56,2.06,5.24v.42c.15.63-.51,1.24-.51,1.24v.21Z"/><path d="M73.81,56.3c-.49.85-1.07,3.02-1.72,1-.28-1.28-.67-2.52-1.73-3.39-1.51-1.22-.93-2.52.72-2.75,1.94-.28,1.25,2.03,3,2.41,2.35.59,5.58.31,5.71-.93-.02-.76.08-1.29,1.01-.9,3.16,1.27,1.38,6.89,3.75,9.6.29.39.63.83.7,1.31.09.56-.19,1.13-.46,1.61-1.1,1.67.07,2.04,1.24,2.7,4.11,2.33-1.82,6.02.9,8.41,1.72,1.23.65,3.99,2.2,5.16.55.5,1.9.97,1.65,1.86-.58.94-3.5-1.49-4.17-3.06-.69-1.19-.69-2.11-1.49-3.04-.27-.36-.57-.71-.78-1.11-1.32-3.08,4.66-6.14-.3-8.13-2.19-1.13-4.24-5.59-3.93-7.85.08-1.04,1.02-1.26,1.11-2.26.17-2.39-2.45-.66-3.79-.97-1.1.09-2.71-.73-3.53.19l-.09.13h0ZM84.35,63.34c-.48-.31-1.2-1.17-1.72-1.52-2.1-.51,1.84,4.92,1.75,1.59l-.03-.08Z"/><path d="M75.46,35.53c1.88-.42,1.01,2.76,2.34,3.25.06-.35.69-1.44,1.07-.49,1.79,5.06.68,11.06-3.24,13.81.6-4.62-4.43-1.55-5.35-6.49,1.84-3.1,3.68-14.66,5.18-10.06v-.02ZM76.64,46.35c2.95.04.12-4.37-.58-5.75-1.3,1.07.3,4.23.58,5.75Z"/><path d="M84.35,79.42c3.04,2.72.52,4.04-1.81,2.08-3.51-3.43-2.64-9.13-3.73-13.65-.32-1.95-.83-4.5-.19-4.38,2.61,4.68,1.8,11.86,5.6,15.82,0,0,.13.13.13.13Z"/></svg>