<?xml version="1.0" encoding="UTF-8"?><svg id="a" xmlns="http://www.w3.org/2000/svg" viewBox="0 0 469.64 422.63"><path d="M469.5,274.53c0-8.1-1.8-15.8-5.3-23.1-30.2-63.3-60.2-125.8-90.1-187.5-1.8-3.7-4.8-6.5-8.5-8.2L241.4,1.33c-7.9-3.4-17.1-.1-20.9,7.6l-58,116c-.8,1.7-2.3,2.9-4.2,3.4l-98.2,28c-6.7,1.9-11.8,7.4-13.2,14.2L.3,404.13c-1.9,9.6,5.4,18.5,15.1,18.5h438.4c8.7,0,15.8-7,15.8-15.8.1-43.5,0-87.6-.1-132.3ZM297.6,389.13c0,1.3-1,2.2-2.2,2.2h-121c-1.3,0-2.2-1-2.2-2.2v-28.8c0-34.8,27.8-62.9,62.1-62.9h1.3c34.3,0,62.1,28.1,62.1,62.9v28.8h-.1ZM435.7,391.33h-104.2c-1.7,0-2.5-.8-2.6-2.5-.4-15.1.8-31.7-1.6-45-18.3-101.5-162.5-103.9-184.8-2-1.7,8-2.2,23.5-1.4,46.6.1,1.9-.9,2.9-2.8,2.9H37.5c-1.9,0-2.7-.9-2.3-2.9l20.9-104.4c.3-1.6,1.3-2.3,2.9-2.3h48c1.7,0,2.6-.9,2.6-2.6v-26.1c0-1.7-.9-2.6-2.6-2.6h-41c-2.1,0-3-1-2.6-3.1l12-59.9c.4-1.8,1.4-2.9,3.1-3.4l96-27.4c5.5-1.6,10.1-5.4,12.7-10.5l53.7-107.5c.9-1.7,2.2-2.2,4-1.4l100.6,43.9c1.6.7,2.9,2,3.8,3.5l25.9,52.7c.8,1.6-.4,3.5-2.1,3.5h-88.6c-1.7,0-2.6.9-2.6,2.6v26.1c0,1.7.9,2.6,2.6,2.6h104.4c1.7,0,3.3,1,4,2.6l20,41.3c1,2,.3,3.1-1.9,3.1h-48.2c-1.7,0-2.6.9-2.6,2.6v24.8c0,2.6,1.3,3.9,3.9,3.9h56.7c9.7,0,17.5,7.8,17.5,17.5l.2,120.8c-.1,1.7-1,2.6-2.8,2.6Z"/></svg>