<?xml version="1.0" encoding="UTF-8"?><svg id="a" xmlns="http://www.w3.org/2000/svg" viewBox="0 0 100 100"><path d="M79.82,99.95v-11.37c0-2.26-1.83-4.08-4.08-4.08s-4.08,1.81-4.08,4.08v11.37h-11.61c-1.16-12.51-6.09-20.32-8.6-23.56-.71-.94-2.12-.98-2.87-.06-1.49,1.83-3.83,5.09-5.62,9.33-1.59,3.71-2.59,10.23-2.98,14.28h-11.61v-11.37c0-2.26-1.83-4.08-4.08-4.08s-4.08,1.81-4.08,4.08v11.37H3.14l3.89-17.61c.88-3.73,2.91-7.52,6.38-9.19,18.04-8.7,24.05-11.61,31.22-15.08-.16-3.97-.53-7.95-1.06-11.92l5.11-6.56c.67-.86,1.98-.86,2.65,0l5.11,6.54c-.53,3.95-.9,7.95-1.06,11.92,8.05,3.89,23.11,11.17,31.22,15.1,3.48,1.65,5.56,5.46,6.38,9.19l3.89,17.61h-17.06.01Z"/><path d="M72.45,63.42c-6.66-3.24-12.69-6.15-12.69-6.15.58-8.94,2.07-18.06,4.83-27.55l.71-2.53c-2.71-.35-4.83-2.67-4.83-5.48,0-3.04,2.49-5.5,5.52-5.5s5.52,2.47,5.52,5.5c0,2.81-2.12,5.13-4.83,5.48l.73,2.57c3.18,11.06,4.89,22.35,5.03,33.66h.01Z"/><path d="M90.46,72.33c-.61-.45-1.26-.82-1.94-1.14-2-.98-5.79-2.81-10-4.85.77-7.8,2.28-15.59,4.46-23.17l.59-2.04c-2.67-.39-4.71-2.69-4.71-5.46,0-3.04,2.47-5.5,5.5-5.5s5.52,2.47,5.52,5.5c0,2.75-2.02,5.03-4.65,5.46l.59,2.08c2.38,8.33,3.93,19.22,4.63,29.12h.01Z"/><path d="M32.9,29.76l.73-2.57c-2.71-.35-4.83-2.67-4.83-5.48,0-3.04,2.49-5.5,5.52-5.5s5.52,2.47,5.52,5.5c0,2.81-2.12,5.13-4.83,5.48l.71,2.53c2.44,8.4,4.28,18.23,4.83,27.57-3.97,1.92-8.31,4.01-12.69,6.13.14-11.31,1.85-22.6,5.03-33.66h0Z"/><path d="M21.79,66.36c-3.46,1.67-6.85,3.3-10,4.83-.67.33-1.32.71-1.94,1.16.69-9.9,2.24-20.8,4.63-29.14l.59-2.08c-2.63-.43-4.65-2.71-4.65-5.46,0-3.04,2.47-5.5,5.52-5.5s5.5,2.47,5.5,5.5c0,2.77-2.04,5.07-4.71,5.46l.59,2.04c2.18,7.58,3.69,15.38,4.46,23.19h0Z"/></svg>