<?xml version="1.0" encoding="UTF-8"?><svg id="a" xmlns="http://www.w3.org/2000/svg" viewBox="0 0 80.06 53.6"
   width="100" height="100" preserveAspectRatio="xMidYMax meet"><path d="M40.03,31.82c-3.54,2.11-5.43,4.9-5.98,5.81v15.96h11.95v-15.96c-.55-.9-2.43-3.7-5.98-5.81h0Z"/><path d="M40.03,13.74c-2.84,0-5.15,2.15-5.15,4.79v3.79h10.3v-3.79c0-2.64-2.31-4.79-5.15-4.79h0Z"/><path d="M58.13,12.09L41.59,0l.46,6.13c-.41.66-3.63.65-4.06,0l.48-6.13-16.53,12.09c-.4.29-.64.76-.64,1.26v38.68c0,.86.7,1.56,1.56,1.56h8.07v-16.38c0-.25.06-.49.17-.71.1-.2,2.5-4.83,8.2-7.86.46-.24,1.01-.24,1.47,0,5.7,3.03,8.1,7.66,8.2,7.86.11.22.17.46.17.71v16.38h8.07c.86,0,1.56-.7,1.56-1.56V13.35c0-.5-.24-.97-.64-1.26h0ZM48.31,23.88c0,.86-.7,1.56-1.56,1.56h-13.42c-.86,0-1.56-.7-1.56-1.56v-5.35c0-4.36,3.71-7.91,8.27-7.91s8.27,3.55,8.27,7.91v5.35Z"/><path d="M79.16,25.35l-17.26-8.01v8.45l15.94,7.4c.21.1.43.14.66.14.29,0,.59-.08.84-.25.45-.29.72-.78.72-1.32v-5c0-.61-.35-1.16-.91-1.42h0Z"/><path d="M18.17,17.34L.91,25.35c-.55.26-.91.81-.91,1.42v5c0,.54.27,1.03.72,1.32.25.16.55.25.84.25.23,0,.45-.05.66-.14l15.94-7.4v-8.45h0Z"/><path d="M61.9,52.04c0,.55-.11,1.07-.29,1.56h13.16c.86,0,1.56-.7,1.56-1.56v-16.11l-14.43-6.69v22.8Z"/><path d="M18.17,29.24l-14.43,6.69v16.11c0,.86.7,1.56,1.56,1.56h13.16c-.18-.49-.29-1.01-.29-1.56v-22.8Z"/></svg>