<?xml version="1.0" encoding="UTF-8"?><svg id="a" xmlns="http://www.w3.org/2000/svg" viewBox="0 0 60.63 87.5"><path d="M59.52,21.56L48.91,3.83C47.49,1.46,44.93,0,42.16,0h-22.61c-2.68,0-5.17,1.36-6.61,3.61L1.26,21.88c-1.16,1.77-1.54,3.93-1.05,5.98l12.23,53.53c.8,3.58,3.98,6.12,7.66,6.11h20.31c3.68.02,6.87-2.52,7.67-6.11l12.36-54.06c.44-1.97.11-4.03-.92-5.77h0ZM37.77,81.45h-14.72c-2.16,0-4.04-1.46-4.56-3.56L6.18,28.23c-.31-1.24-.1-2.55.58-3.62l10.38-16.23c.87-1.34,2.36-2.13,3.95-2.12h18.61c1.61,0,3.11.82,3.97,2.17l10.34,16.22c.69,1.09.91,2.41.59,3.66l-12.27,49.59c-.52,2.1-2.4,3.57-4.56,3.56h0Z"/><path d="M41.08,10.06c-.31-.46-.84-.72-1.39-.69h-18.61c-.53,0-1.03.27-1.31.72l-10.38,16.19c-.22.36-.29.79-.19,1.2l12.31,49.66c.18.71.83,1.21,1.56,1.19h14.72c.73.02,1.39-.47,1.56-1.19l12.31-49.66c.1-.42.03-.86-.2-1.22l-10.39-16.2Z"/></svg>