<?xml version="1.0" encoding="UTF-8"?><svg id="a" xmlns="http://www.w3.org/2000/svg" viewBox="0 0 58.24 64.39"
   width="100" height="100" preserveAspectRatio="xMidYMax meet"><path d="M33.14,16.67c1.26-.64,2.29-1.66,2.93-2.93.64,1.27,1.66,2.29,2.93,2.93-1.27.64-2.29,1.66-2.93,2.93-.64-1.27-1.67-2.29-2.93-2.93ZM54.13,58.34H4.13c-1.77,0-3.34,4.38-3.93,6.05h57.86c-.59-1.67-2.16-6.05-3.93-6.05h0ZM5.52,29.17c0,4.28,1.16,8.48,3.36,12.15,2.2,3.67,5.36,6.67,9.14,8.68h22.22c5.6-2.99,9.77-8.11,11.55-14.2s1.04-12.65-2.07-18.18c.31,1.58.31,3.2,0,4.78-.36,1.85-1.12,3.6-2.25,5.11-.77,1.06-2.18,1.44-3.38.9-1.1-.48-2.38-.35-3.36.36-.67.51-1.11,1.27-1.22,2.11-.12.85-.64,1.59-1.39,2.02-.77.41-1.68.45-2.47.08-2.32-1.16-5.05-1.16-7.36,0-.55.3-1.04.68-1.47,1.12-1.31,1.45-1.98,3.37-1.85,5.32.02,1.43.64,2.79,1.71,3.75,1.28.96,2.87,1.4,4.46,1.25.78-.05,1.5-.42,2.02-1.02,1.04-1.39,0-3.82-.14-4.17l2.52-1.17c.46.97,1.77,4.35-.15,6.95h0c-.93,1.25-2.34,2.05-3.89,2.21-.32.02-.65.02-.97,0-2.01,0-3.96-.68-5.55-1.91-1.68-1.45-2.68-3.52-2.77-5.74-.17-2.7.77-5.36,2.6-7.35.38-.38.79-.73,1.24-1.04-.35-1.42-1.08-2.71-2.11-3.75-.87-.89-1.93-1.57-3.11-1.96.41,2.68-.49,5.39-2.42,7.3-1.52,1.27-3.43,1.96-5.4,1.95h-.88c-1.53-.15-2.91-.95-3.8-2.2-1.88-2.67-.43-6.2-.12-6.95h0c.34-.65,1.13-.92,1.8-.62.67.3.99,1.07.73,1.76,0,0-1.18,2.65-.12,4.17.44.61,1.13,1,1.89,1.05,1.46.15,2.91-.29,4.04-1.22,1.48-1.39,1.96-4.03,1.17-6.6-.25-.91-.7-1.75-1.29-2.48-2-2.35-5.78-2.78-9.11-1.21-1.14,2.77-1.73,5.74-1.75,8.73h0ZM9,16.89c3.11-5.11,8.06-8.85,13.83-10.44,5.77-1.59,11.93-.92,17.22,1.88,5.17,3.85,7.83,9.04,6.95,13.6-.3,1.45-.92,2.82-1.82,4-2.02-.89-4.35-.63-6.12.68-1.27.93-2.09,2.35-2.25,3.91-2.58-1.21-5.53-1.41-8.25-.55-1.21-3.91-4.54-6.81-8.58-7.47-.37-.95-.89-1.84-1.54-2.62-2.38-2.62-5.98-3.77-9.43-2.98h0ZM33.29,26.39c0-.77-.62-1.39-1.39-1.39s-1.39.62-1.39,1.39c0,.46.23.89.62,1.15.38.26.87.3,1.3.13.17-.07.32-.17.46-.29.26-.26.4-.62.4-.98h0ZM27.73,9.72c0,.37.14.73.41.99.13.12.29.22.46.29.43.18.91.13,1.3-.13.39-.25.62-.69.62-1.15,0-.77-.62-1.39-1.39-1.39s-1.39.62-1.39,1.39h0ZM27.73,16.67c-.02.64.4,1.21,1.02,1.39,4.17,1.15,4.83,1.82,5.98,5.98.18.59.72,1,1.34,1s1.16-.41,1.33-1c1.15-4.17,1.82-4.83,5.98-5.98h0c.59-.18,1-.72,1-1.34s-.41-1.16-1-1.33c-4.17-1.15-4.83-1.82-5.98-5.98h0c-.17-.59-.71-1-1.33-1s-1.16.41-1.34,1c-1.15,4.17-1.82,4.83-5.98,5.98h0c-.58.16-.99.68-1.02,1.28ZM24.96,20.84c0-.18-.04-.36-.11-.53-.07-.17-.16-.33-.29-.46-.26-.26-.61-.41-.98-.41s-.73.15-.99.41c-.12.13-.22.29-.29.46-.16.38-.15.82.05,1.19.2.37.55.63.96.71.41.08.84-.03,1.16-.3.32-.27.51-.66.5-1.08h0ZM16.63,13.89c0,1.68,1.02,3.2,2.57,3.85,1.56.64,3.35.29,4.54-.9s1.55-2.98.9-4.54c-.64-1.56-2.16-2.57-3.85-2.57-2.3,0-4.17,1.87-4.17,4.17h0ZM29.13,0c-7.82.01-15.31,3.16-20.78,8.74S-.14,21.87,0,29.69c.14,7.82,3.41,15.25,9.08,20.63.64-.2,1.31-.3,1.99-.32h1.88c-5.83-4.52-9.5-11.28-10.12-18.64-.62-7.36,1.88-14.64,6.88-20.07C14.7,5.86,21.74,2.77,29.13,2.77s14.43,3.09,19.42,8.53c5,5.43,7.49,12.71,6.88,20.07-.62,7.36-4.29,14.12-10.12,18.64h1.88c.67.02,1.34.12,1.97.32,5.67-5.38,8.94-12.81,9.08-20.63.14-7.82-2.86-15.36-8.34-20.94C44.43,3.17,36.94.02,29.13,0h0ZM9.31,53.18c-1.01.47-1.79,1.32-2.16,2.38h43.97c-.59-1.67-2.16-2.78-3.93-2.78H11.07c-.61,0-1.21.14-1.77.41h0ZM20.79,15.28c.56,0,1.07-.34,1.28-.86.21-.52.1-1.12-.3-1.52-.4-.39-1-.52-1.51-.3-.52.21-.86.72-.86,1.29,0,.37.15.72.41.98s.61.41.98.41h0Z"/></svg>