<?xml version="1.0" encoding="UTF-8"?><svg id="a" xmlns="http://www.w3.org/2000/svg" viewBox="0 0 96.4 63.39"><path d="M96.4,23.42l-25.16,12.6-1.81,27.32,25.16-11.97,1.81-27.95h0ZM52.69,42.24c0-1.26.35-2.41.91-3.26.61-.92,1.47-1.48,2.45-1.48s1.84.57,2.45,1.48l.02.04c.55.84.89,1.98.89,3.22s-.35,2.41-.91,3.26c-.61.92-1.47,1.48-2.45,1.48s-1.84-.57-2.45-1.48l-.02-.04c-.55-.84-.89-1.98-.89-3.22ZM84.36,45.03s0-.05,0-.08c.14-1.23.61-2.33,1.26-3.09.71-.84,1.63-1.31,2.59-1.2s1.76.77,2.27,1.74c.46.89.68,2.06.55,3.3,0,.03,0,.05,0,.08-.14,1.23-.61,2.33-1.26,3.09-.7.83-1.6,1.29-2.55,1.2-.03,0-.06,0-.09,0-.95-.12-1.73-.77-2.23-1.74-.46-.89-.68-2.06-.55-3.3h0ZM74.58,40.05s0-.05,0-.08c.14-1.23.61-2.33,1.26-3.09.7-.83,1.6-1.29,2.55-1.2.03,0,.06,0,.09,0,.95.12,1.73.77,2.23,1.74.46.89.68,2.06.55,3.3,0,.03,0,.05,0,.08-.14,1.23-.61,2.33-1.26,3.09-.71.84-1.63,1.31-2.59,1.2-.97-.11-1.76-.77-2.27-1.74-.46-.89-.68-2.06-.55-3.3h0ZM71.8,18.22c1.26,0,2.41.35,3.26.91.92.61,1.48,1.47,1.48,2.45s-.57,1.84-1.48,2.45l-.04.02c-.84.55-1.98.89-3.22.89s-2.41-.35-3.26-.91c-.92-.61-1.48-1.47-1.48-2.45s.57-1.84,1.48-2.45l.04-.02c.84-.55,1.98-.89,3.22-.89ZM46.59,33.2c0,1.24.34,2.38.89,3.22l.02.04c.61.92,1.47,1.48,2.45,1.48s1.84-.57,2.45-1.48c.56-.84.91-2,.91-3.26s-.34-2.38-.89-3.22l-.02-.04c-.61-.92-1.47-1.48-2.45-1.48s-1.84.57-2.45,1.48c-.56.84-.91,2-.91,3.26ZM59.26,52.52c0-1.26.35-2.41.91-3.26.61-.92,1.47-1.48,2.45-1.48s1.84.57,2.45,1.48c.56.84.91,1.99.91,3.26s-.35,2.42-.91,3.26c-.61.92-1.47,1.48-2.45,1.48s-1.84-.57-2.45-1.48l-.02-.04c-.55-.84-.89-1.98-.89-3.22h0ZM0,21.47l8.57,26.69,27.15,3.07-7.59-26.33L0,21.47h0ZM.41,20.31L19.91,0l27.96,3.42-19.48,20.28L.41,20.31h0ZM14.22,36.45c-.37-1.02-.41-2.06-.2-2.91.23-.93.79-1.65,1.6-1.94.81-.29,1.69-.08,2.46.5.7.52,1.32,1.36,1.68,2.39.37,1.02.41,2.06.2,2.91-.23.93-.79,1.65-1.6,1.94s-1.69.08-2.46-.5c-.7-.52-1.32-1.36-1.68-2.39ZM33.86,27.08c-.29-1.23-.21-2.43.14-3.37.39-1.03,1.1-1.78,2.04-2s1.92.13,2.72.88c.74.69,1.34,1.74,1.63,2.96.29,1.23.21,2.43-.14,3.37-.38,1.03-1.1,1.78-2.04,2-.95.22-1.92-.13-2.72-.88-.01,0-.02-.02-.03-.03-.72-.69-1.31-1.72-1.6-2.93h0ZM23.93,7.48c-1.19.42-2.16,1.14-2.76,1.95-.65.88-.9,1.88-.57,2.8.33.92,1.15,1.54,2.22,1.81.98.25,2.18.19,3.37-.24,1.19-.42,2.16-1.14,2.76-1.95.65-.88.9-1.88.57-2.8-.33-.92-1.15-1.54-2.22-1.81-.98-.25-2.18-.19-3.37.24ZM6.09,30.54c-.36-1.02-.41-2.04-.2-2.88.23-.92.78-1.64,1.58-1.93.8-.29,1.68-.08,2.44.5.7.52,1.31,1.35,1.67,2.37.36,1.02.41,2.04.2,2.88-.23.92-.78,1.64-1.58,1.93-.8.29-1.68.08-2.44-.5-.7-.52-1.31-1.35-1.67-2.37ZM23.6,44.23c-.4-1.11-.45-2.23-.22-3.14.25-1,.84-1.77,1.71-2.08.86-.31,1.81-.08,2.63.53.76.56,1.42,1.47,1.82,2.58.4,1.11.45,2.23.22,3.14-.25,1-.84,1.77-1.71,2.08-.86.31-1.81.08-2.63-.53-.76-.56-1.42-1.47-1.82-2.58ZM20.92,32.06c-.39-1.1-.44-2.2-.22-3.11.25-.99.83-1.75,1.69-2.06s1.79-.08,2.6.53c.75.56,1.41,1.45,1.8,2.55.39,1.1.44,2.2.22,3.11-.25.99-.83,1.75-1.69,2.06-.85.31-1.79.08-2.61-.53-.75-.56-1.41-1.45-1.8-2.55h0ZM9.48,43.15c-.38-1.05-.43-2.12-.21-2.99.24-.96.81-1.7,1.63-1.99s1.73-.08,2.52.51c.72.54,1.35,1.4,1.73,2.45.38,1.05.43,2.12.21,2.99-.24.96-.81,1.7-1.63,1.99-.83.3-1.73.08-2.52-.51-.72-.54-1.35-1.4-1.73-2.45ZM12.68,12.45c-1.19.42-2.16,1.14-2.76,1.95-.66.88-.9,1.88-.57,2.8.33.92,1.15,1.54,2.21,1.81.98.25,2.18.19,3.37-.24,1.19-.42,2.16-1.14,2.76-1.95.66-.88.9-1.88.57-2.8-.33-.92-1.15-1.54-2.21-1.81-.98-.25-2.18-.19-3.37.24ZM34.67,4.2c-1.12.4-2.03,1.07-2.59,1.83-.62.83-.84,1.77-.54,2.64h0c.31.87,1.09,1.46,2.09,1.72.92.23,2.04.18,3.16-.22,1.12-.4,2.03-1.07,2.59-1.83.62-.83.85-1.78.54-2.65s-1.09-1.46-2.09-1.71c-.92-.23-2.04-.18-3.16.22ZM44.03,40.32l.53-16.95.49.24,11.09,5.54s.06.03.09.04l13.68,6.84-1.68,27.35-24.54-12,.2-6.18v-.04l.15-4.67c0-.06,0-.12,0-.19h0ZM37.32,40.25c.29,1.23.89,2.27,1.63,2.96.8.75,1.77,1.1,2.72.88.4-.1.76-.28,1.06-.54l-.04,1.37-5.86,5.87-7.46-26.35L48.84,4.14l3.78,13.3-2.86,1.43c.32-.91.39-2.04.11-3.2-.28-1.19-.86-2.2-1.58-2.86-.78-.72-1.72-1.07-2.64-.85-.92.21-1.61.94-1.98,1.94-.34.92-.41,2.08-.13,3.26.28,1.19.86,2.2,1.58,2.86.31.29.64.51.99.67l-2.37,1.19c-.2.09-.35.29-.35.53l-.44,14.21c-.22-.33-.47-.62-.73-.86-.8-.75-1.77-1.1-2.72-.88-.95.22-1.66.97-2.04,2-.35.95-.43,2.15-.14,3.37h0ZM95.73,22.42l-25.15,12.57-25.24-12.58,8.23-4.12s.06-.03.09-.04l16.87-8.44,25.2,12.6h0Z" fill-rule="evenodd"/></svg>