<?xml version="1.0" encoding="UTF-8"?><svg id="a" xmlns="http://www.w3.org/2000/svg" viewBox="0 0 80.16 59.25"
   width="100" height="100" preserveAspectRatio="xMidYMax meet"><path d="M71.73,25.66L50.09,3.7h-20.02L8.43,25.66v29.49h-4.31v4.09h71.91v-4.09h-4.31v-29.49h0ZM51.42,35.21l-4.59,7.89-4.58-7.89h9.17ZM52.41,37.69v14.99l-4.35-7.49,4.35-7.49ZM45.62,45.18l-4.36,7.49v-14.99l4.36,7.49ZM30.31,13.89h19.54v7.75h-19.54v-7.75ZM38.9,52.68l-4.36-7.49,4.36-7.49v14.99ZM37.91,35.21l-4.58,7.89-4.58-7.89h9.17ZM27.76,37.69l4.36,7.49-4.36,7.49v-14.99ZM28.74,55.15l4.58-7.89,4.58,7.89h-9.17ZM42.25,55.15l4.58-7.89,4.59,7.89h-9.17Z"/><polygon points="53 0 27.16 0 0 27.52 2.3 29.79 29.46 2.27 50.7 2.27 77.86 29.79 80.16 27.52 53 0"/></svg>