<?xml version="1.0" encoding="UTF-8"?><svg id="a" xmlns="http://www.w3.org/2000/svg" viewBox="0 0 84.37 56.25"
   width="100" height="100" preserveAspectRatio="xMidYMax meet"><path d="M66.22,11.19c-2.95-1.08-7.5-2.34-13-2.58C51.64,6.78,46.17,1.39,35.62.01c-.69-.09-1.36.28-1.64.91-.12.28-2.69,6.19.69,11.14-5.66,2.47-11.55,6.48-17.31,12.73-1.33-4.19-5.11-11.11-15.62-12.28-.44-.06-.89.09-1.22.39S0,13.62,0,14.08C0,14.41.14,22,5.25,26.55c1.17,1.03,2.48,1.83,3.95,2.36-1.47.53-2.78,1.33-3.95,2.36C.14,35.81,0,43.41,0,43.73c0,.45.19.88.52,1.17.28.27.66.41,1.05.41.06,0,.11,0,.17-.02,11.62-1.3,15.02-9.59,15.95-13.48,5.66,6.05,11.42,9.95,16.98,12.38-3.38,4.95-.81,10.86-.69,11.14.27.56.83.92,1.44.92.06,0,.12,0,.2-.02,10.55-1.38,16.02-6.77,17.59-8.59,5.52-.23,10.05-1.5,13-2.58,10.17-3.72,18.16-11.16,18.16-16.94s-7.98-13.22-18.16-16.94h0ZM70.31,28.12c-1.72,0-3.12-1.41-3.12-3.12s1.41-3.12,3.12-3.12,3.12,1.41,3.12,3.12-1.41,3.12-3.12,3.12ZM61.91,37.94c.41.75.14,1.7-.62,2.12-.23.12-.5.19-.75.19-.55,0-1.08-.3-1.38-.81-1.89-3.44-2.91-7.36-2.91-11.31s1.02-7.88,2.91-11.31c.42-.77,1.38-1.03,2.12-.62.77.42,1.03,1.38.62,2.12-1.66,3-2.53,6.39-2.53,9.81s.88,6.81,2.53,9.81h0Z"/></svg>