<?xml version="1.0" encoding="UTF-8"?><svg id="a" xmlns="http://www.w3.org/2000/svg" viewBox="0 0 63.4 95"
   width="100" height="100" preserveAspectRatio="xMidYMax meet"><path d="M63.4,23.2c0-11-8.1-23.2-15.5-23.2s-15.6,12.2-15.6,23.2c0,8.8,4.4,14.1,10.6,16l-.8,50c0,3.2,2.5,5.8,5.7,5.8s5.8-2.6,5.7-5.8l-.8-50c6.3-1.8,10.7-7.2,10.7-16Z"/><path d="M22.3,2.5c-1.4,0-2.5,1.1-2.5,2.5v20.8c0,.6-.5,1.1-1.1,1.1h-2.7c-.6,0-1.1-.5-1.1-1.1V4.9c-.1-1.3-1.2-2.4-2.5-2.4-1.4,0-2.5,1.1-2.5,2.5v20.8c0,.6-.5,1.1-1.1,1.1h-2.7c-.6,0-1.1-.5-1.1-1.1V4.9c0-1.4-1.1-2.5-2.5-2.5S0,3.5,0,4.9v25.3c0,4.3,3.3,7.8,7.4,8.2l-.8,50.7c0,3.2,2.5,5.8,5.7,5.8s5.8-2.6,5.7-5.8l-.7-50.6c4.2-.4,7.4-4,7.4-8.2V4.9c0-1.3-1.1-2.4-2.4-2.4Z"/></svg>