<?xml version="1.0" encoding="UTF-8"?><svg id="a" xmlns="http://www.w3.org/2000/svg" viewBox="0 0 68 72"
   width="100" height="100" preserveAspectRatio="xMidYMax meet"><path d="M13.03,72h8.1l-1.55-4.08h-5.01l-1.54,4.08ZM38.6,72h12.62l-2.84-10.2h-6.94l-2.84,10.2ZM8.67,32.92h2.31c.73,0,1.41.41,1.75,1.08.35.66.3,1.47-.11,2.1l-9.59,14.6h2.04c.74,0,1.42.42,1.76,1.09s.29,1.48-.12,2.11L0,63.84h34.15l-1.38-2.04h-14.71c-.73,0-1.41-.41-1.75-1.08-.35-.66-.3-1.47.11-2.1l9.31-14.16h-3.69c-.73,0-1.4-.41-1.75-1.07-.35-.66-.31-1.46.09-2.09l2.25-3.52-1.11-1.69c-.41-.62-.45-1.43-.11-2.1.34-.67,1.02-1.08,1.75-1.08h2.31l-8.4-11.56-8.41,11.56ZM32.91,16.93h4.16c.73,0,1.4.41,1.75,1.07s.32,1.46-.09,2.09l-13,20.3h3.75c.73,0,1.41.41,1.75,1.08.34.66.3,1.47-.11,2.1l-9.31,14.16h46.19l-9.31-14.16c-.41-.62-.45-1.43-.11-2.1.34-.67,1.02-1.08,1.75-1.08h3.74l-13-20.3c-.4-.63-.43-1.43-.09-2.09.34-.66,1.02-1.07,1.75-1.07h4.16L44.91,0l-12,16.93Z" fill-rule="evenodd"/></svg>