<?xml version="1.0" encoding="UTF-8"?><svg id="a" xmlns="http://www.w3.org/2000/svg" viewBox="0 0 84.7 92.64"><path d="M82.56,47.59H2.13c-1.87,0-2.85,2.28-1.5,3.63h0c.39.39.92.62,1.51.62h80.43c.58,0,1.11-.24,1.5-.62h0c1.39-1.5.26-3.63-1.51-3.63ZM70.54,17.35c0,2.53-3.84,2.53-3.84,0,0-3.97-.07-6.99-3.3-10.22-7.11-7.12-19.13-1.93-19.13,7.92v10.6c6.84-5.62,17.1-.66,17.1,8.09,0,1.14.25,3.41-1.92,3.41s-1.92-2.27-1.92-3.41c0-5.81-7.1-8.89-11.31-4.68-1.2,1.2-1.95,2.86-1.95,4.68v10.02h-3.84v-10.02c0-5.81-7.09-8.89-11.31-4.68-1.96,1.96-1.95,3.79-1.95,6.18,0,2.53-3.84,2.53-3.84,0,0-3.54.35-6.17,3.07-8.89,3.81-3.81,9.86-4.12,14.02-.7v-10.6C40.43,5.21,28.41.02,21.29,7.13c-3.23,3.23-3.3,6.24-3.3,10.22,0,2.53-3.84,2.53-3.84,0v-2.3C14.16-.34,34.76-5.78,42.34,7.72c4.88-8.68,16.66-10.41,23.77-3.3,2.73,2.73,4.42,6.49,4.42,10.63v2.3ZM48.72,70.25c3.75-.4,5.54-.56,9.14-1.36,10.01-2.21,17.9-6.63,19.07-13.21H7.77c2.43,13.11,28.13,15.61,40.96,14.57h0ZM47.21,74.19h-9.72s-.61,6.2-.61,6.2c-.36,3.71-2.79,6.75-6.32,7.91-2.78.92-6.18,2.18-7.29,4.33h38.18c-2.41-4.73-12.72-2.94-13.63-12.25l-.61-6.2Z" fill-rule="evenodd"/></svg>