<?xml version="1.0" encoding="UTF-8"?><svg id="a" xmlns="http://www.w3.org/2000/svg" viewBox="0 0 100 100"><path d="M37.64,61.32c-.22,16.71-14.6,16.71-14.84,0,.21-6.6,2.37-12.14,7.42-12.61,5.06.47,7.23,6.01,7.42,12.61Z"/><path d="M86.15,66.47c-4.14-12.63-22.73-7.67-20.03,5.39-1.07.46-2.05,1.1-2.89,1.9-5.61-10.86-21.96-5-19.37,7-3.72,1.63-6.22,5.34-6.22,9.5-.16,8.65,10.6,13.65,17.07,7.92,6.02,5.36,16.12,1.35,16.96-6.56,3.53-.49,6.57-2.76,8.04-5.95,6.6,4.29,16.01-.93,15.8-8.86,0-5.39-4.11-9.82-9.36-10.34ZM46.71,79.95c-1.02-4.53,2.6-9.04,7.26-8.98,4.6-.09,8.3,4.45,7.26,8.9-2.37.06-4.69.92-6.51,2.43-2.2-1.83-5.15-2.72-8-2.36h0ZM61.38,97.68c-1.72,0-3.38-.61-4.69-1.69,2.27-3.38,2.29-8.07,0-11.46,4.64-4.01,12.24-.4,12.11,5.73,0,4.1-3.32,7.42-7.42,7.42ZM79.32,76.22c-2.05-3.59-6.22-5.74-10.36-5.18-1.02-4.53,2.6-9.04,7.26-8.98,3.59,0,6.66,2.57,7.3,6.14.64,3.26-1.22,6.69-4.2,8.01h0Z"/><path d="M62.57,32.45c-.58-3.37,1.51-6.6,1.54-6.66,1.05-1.62-1.39-3.25-2.48-1.63-.12.18-2.6,3.96-2.08,8.33-4.73.34-9.22,1.99-13.03,4.78.25-8.71-6.48-16.03-15.02-16.68-.15-1.57-.03-4.56,2.51-6.25,1.6-1.07-.03-3.53-1.65-2.46-3.68,2.45-4.01,6.46-3.84,8.74-7.45.73-13.56,6.69-14.5,14.13-.04,5.52-.24,11-3.68,15.85-10.17,14.85.89,35.97,18.73,36.68,1.69-.13,6.68.61,6.37-2-.13-.82-.89-1.37-1.71-1.23-12.2,2.27-24.19-7.75-24.29-20.14-.06-4.18,1.1-8.22,3.38-11.68,2.92-4.5,4.33-9.56,4.05-14.66-.52-7.48,5.86-14.2,13.37-14.07,7.55,0,13.67,6.4,13.31,13.93-.22,5.08,1.25,10.3,4.26,15.11,2.08,3.31,3.18,7.12,3.18,11.1.04,1.75,1.69,1.37,2.86.49,6.74-5.06,17.07-10.61,30.48-5.24.03,0,.04,0,.07.03.88.45,2.18,0,2.2-1.29,0-13.52-10.68-24.54-24.04-25.17h.01ZM76.06,51.47c-.7.42-1.62.18-2.03-.53-1.68-2.91-4.29-5.27-7.33-6.68-1.75-.82-.52-3.49,1.25-2.69,3.65,1.68,6.63,4.39,8.65,7.88.42.7.18,1.62-.53,2.02h-.01Z"/></svg>