<?xml version="1.0" encoding="UTF-8"?><svg id="a" xmlns="http://www.w3.org/2000/svg" viewBox="0 0 99.07 66.04"><path d="M48.09,56.66v9.39l-21.33-12.96,7.72-4.69,13.6,8.26Z"/><path d="M72.04,53.09l-21.33,12.96v-9.39l13.6-8.26s7.72,4.69,7.72,4.69Z"/><path d="M63.08,20.07l.07.13v25.67l-.07.13-13.67,8.31-13.67-8.31-.07-.13v-25.66l.07-.13,13.67-8.31,13.67,8.31h0Z"/><path d="M33.05,19.94v26.17l-7.72,4.69V15.24l7.72,4.7Z"/><path d="M73.48,50.8l-7.72-4.69v-26.17l7.72-4.69v35.56h0Z"/><path d="M48.09,9.39l-13.6,8.26-7.72-4.69L48.09,0v9.39Z"/><path d="M72.04,12.96l-7.72,4.7-13.6-8.26V0l21.33,12.96Z"/><path d="M11.04,45.14l.03,4.49L.82,43.51l3.68-2.27,6.54,3.9Z"/><path d="M22.48,43.34l-10.16,6.28-.03-4.49,6.48-4s3.71,2.21,3.71,2.21Z"/><path d="M18.08,27.57l.03.06.09,12.28-.03.06-6.51,4.03-6.57-3.92-.03-.06-.09-12.28.03-.06,6.51-4.03,6.57,3.92h0Z"/><path d="M3.71,27.63l.09,12.52L.12,42.42l-.12-17.01,3.71,2.22Z"/><path d="M23.16,42.24l-3.71-2.21-.09-12.52,3.68-2.27.12,17.01h0Z"/><path d="M10.87,22.52l-6.48,4-3.71-2.21,10.16-6.28.03,4.49Z"/><path d="M22.34,24.14l-3.68,2.28-6.54-3.9-.03-4.49,10.25,6.12Z"/><path d="M86.95,45.14l.03,4.49-10.25-6.12,3.68-2.27,6.54,3.9Z"/><path d="M98.39,43.34l-10.16,6.28-.03-4.49,6.48-4s3.71,2.21,3.71,2.21Z"/><path d="M93.99,27.57l.03.06.09,12.28-.03.06-6.51,4.03-6.57-3.92-.03-.06-.09-12.28.03-.06,6.51-4.03,6.57,3.92h0Z"/><path d="M79.62,27.63l.09,12.52-3.68,2.27-.12-17.01,3.71,2.22Z"/><path d="M99.07,42.24l-3.71-2.21-.09-12.52,3.68-2.27.12,17.01h0Z"/><path d="M86.79,22.52l-6.48,4-3.71-2.21,10.16-6.28.03,4.49Z"/><path d="M98.25,24.14l-3.68,2.28-6.54-3.9-.03-4.49,10.25,6.12Z"/></svg>