<?xml version="1.0" encoding="UTF-8"?><svg id="a" xmlns="http://www.w3.org/2000/svg" viewBox="0 0 100 100"><path d="M48.68,90.98v9.39l-21.33-12.96,7.72-4.69,13.6,8.26h0Z"/><path d="M72.63,87.41l-21.33,12.96v-9.39l13.6-8.26,7.72,4.69h.01Z"/><path d="M63.67,54.39l.07.13v25.67l-.07.13-13.67,8.31-13.67-8.31-.07-.13v-25.66l.07-.13,13.67-8.31,13.67,8.31h0Z"/><path d="M33.64,54.26v26.17l-7.72,4.69v-35.56s7.72,4.7,7.72,4.7Z"/><path d="M74.07,85.12l-7.72-4.69v-26.17l7.72-4.69v35.56h0Z"/><path d="M48.68,43.71l-13.6,8.26-7.72-4.69,21.32-12.96v9.39Z"/><path d="M72.63,47.28l-7.72,4.7-13.6-8.26v-9.4l21.33,12.96h-.01Z"/><path d="M11.63,79.46l.03,4.49-10.25-6.12,3.68-2.27,6.54,3.9Z"/><path d="M23.07,77.66l-10.16,6.28-.03-4.49,6.48-4s3.71,2.21,3.71,2.21Z"/><path d="M18.67,61.89l.03.06.09,12.28-.03.06-6.51,4.03-6.57-3.92-.03-.06-.09-12.28.03-.06,6.51-4.03,6.57,3.92h0Z"/><path d="M4.3,61.95l.09,12.52-3.68,2.27-.12-17.01s3.71,2.22,3.71,2.22Z"/><path d="M23.75,76.56l-3.71-2.21-.09-12.52,3.68-2.27.12,17.01h0Z"/><path d="M11.46,56.84l-6.48,4-3.71-2.21,10.16-6.28.03,4.49Z"/><path d="M22.93,58.46l-3.68,2.28-6.54-3.9-.03-4.49,10.25,6.12h0Z"/><path d="M94.79,75.56l3.68,2.27-10.25,6.12.03-4.49,6.54-3.9Z"/><path d="M80.52,75.45l6.48,4-.03,4.49-10.16-6.28s3.71-2.21,3.71-2.21Z"/><path d="M81.21,61.89l6.57-3.92,6.51,4.03.03.06-.09,12.28-.03.06-6.57,3.92-6.51-4.03-.03-.06.09-12.28.03-.06h0Z"/><path d="M99.29,59.73l-.12,17.01-3.68-2.27.09-12.52s3.71-2.22,3.71-2.22Z"/><path d="M76.13,76.57h0l.12-17.01,3.68,2.27-.09,12.52-3.71,2.21h0Z"/><path d="M88.45,52.35l10.16,6.28-3.71,2.21-6.48-4,.03-4.49Z"/><path d="M76.95,58.47l10.25-6.12-.03,4.49-6.54,3.9-3.68-2.28h0Z"/></svg>