<?xml version="1.0" encoding="UTF-8"?><svg id="a" xmlns="http://www.w3.org/2000/svg" viewBox="0 0 31.05 28.84"
   width="100" height="100" preserveAspectRatio="xMidYMax meet"><path d="M26.22,24.4h3.73c.61,0,1.11-.5,1.11-1.11,0-.24-.08-.48-.23-.67-1.15-1.59-2.77-2.78-4.63-3.4l.4-2.3,1.09.19c.06.01.13.02.19.02.54,0,1-.39,1.09-.92l.19-1.09c.1-.6-.3-1.18-.9-1.28,0,0,0,0,0,0l-1.09-.19.19-1.09c.1-.6-.3-1.18-.9-1.28l-1.09-.19c-.6-.1-1.18.3-1.28.9,0,0,0,0,0,0l-.19,1.09-1.09-.19c-.6-.1-1.18.3-1.28.9l-.19,1.09c-.1.6.3,1.18.9,1.28,0,0,0,0,0,0l1.09.19-.44,2.56c-1.36.18-2.65.69-3.76,1.5-.45-.11-.91-.21-1.37-.28v-11.26h3.33c.61,0,1.11-.5,1.11-1.11h0v-2.22c0-.61-.5-1.11-1.11-1.11h-3.33V1.11C17.75.5,17.25,0,16.64,0h-2.22c-.61,0-1.11.5-1.11,1.11h0v3.33h-3.33c-.61,0-1.11.5-1.11,1.11h0v2.22c0,.61.5,1.11,1.11,1.11h3.33v8.3c-1.45-1.05-3.2-1.63-4.99-1.64-.46,0-.92.04-1.37.12l-.3-2.53,1.1-.13c.61-.07,1.04-.62.97-1.23l-.13-1.1c-.07-.61-.62-1.04-1.23-.97,0,0,0,0,0,0l-1.1.13-.13-1.1c-.07-.61-.63-1.04-1.23-.97l-1.1.13c-.61.07-1.04.63-.97,1.23l.13,1.1-1.1.13c-.61.07-1.04.62-.97,1.23h0s.13,1.1.13,1.1c.07.56.54.98,1.1.98.04,0,.09,0,.13,0l1.1-.13.41,3.38c-1.42.93-2.63,2.14-3.56,3.56-.34.51-.21,1.2.3,1.54.18.12.4.19.62.19h6.65c-2.06,1.28-3.86,2.93-5.31,4.87-.37.49-.28,1.18.21,1.55.19.15.43.23.67.23h24.4c.61,0,1.11-.5,1.11-1.11,0-.24-.08-.48-.23-.67-.72-.95-1.52-1.84-2.39-2.66Z"/></svg>