<?xml version="1.0" encoding="UTF-8"?><svg id="a" xmlns="http://www.w3.org/2000/svg" viewBox="0 0 100 100"><path d="M59.87,78.28c-.81-.68-2.17-.69-3.25-.69-3.55.05-6.86,0-10.4,0-3.51-.06-4.32,2.75-.62,3.6,2.1.43,16.92,1.54,14.36-2.83l-.09-.08h0Z"/><path d="M95.94,56.99c-.4-2.99-2.36-5.54-5.16-6.68-1.82-.71-3.75-1.07-5.7-1.07,3.2-4.13,4.62-9.35,3.97-14.53-.12-.98-.99-1.69-1.98-1.62-5.56.45-10.65,3.3-13.94,7.81-.98-.89-2.09-1.61-3.3-2.14-2.01-.86-4.22-1.17-6.39-.92-.75-6.3-3.89-12.06-8.77-16.11-.63-.53-1.39-.88-2.19-1.03l-.03-.02c-.17-.06-.34-.09-.51-.1-.03,0-.05-.02-.08-.02h-.23s-.05,0-.08.02c-.17,0-.35.04-.51.1l-.03.02c-.81.15-1.57.51-2.2,1.04-4.88,4.05-8.01,9.82-8.77,16.11-2.17-.26-4.37.05-6.39.91-.26.11-.49.27-.75.39-3.84-6.17-10.38-10.16-17.63-10.76-.97-.04-1.82.65-1.98,1.62-.49,6.95,1.7,13.82,6.11,19.21-2.29-.08-4.58.29-6.73,1.09-2.79,1.15-4.76,3.7-5.16,6.68-.64,3.14.94,6.32,3.84,7.71.98.52,2.02.89,3.1,1.12-.46,4.15-.63,8.33-.5,12.5,0,3.68.57,7.34,1.7,10.84,1.24,3.79,3.84,6.99,7.3,8.97,2.97,1.39,6.24,2.03,9.52,1.87.86,0,1.7-.02,2.5-.04l16.73-.44h.08l16.73.44c.8.02,1.63.04,2.5.04,3.28.16,6.54-.48,9.51-1.87,3.46-1.98,6.07-5.18,7.31-8.97,1.12-3.5,1.69-7.16,1.69-10.84.13-4.17-.04-8.35-.5-12.5,1.08-.23,2.12-.6,3.1-1.12,2.88-1.39,4.45-4.57,3.81-7.71h.01ZM85.47,37.08c.04,4.5-1.83,8.81-5.14,11.86-.06.07-.12.14-.16.22l-2.82-.04c-.2-1.81-.79-3.56-1.72-5.13,2.2-3.55,5.76-6.05,9.85-6.92h0ZM68.34,42.2c2.78,1.28,4.73,3.86,5.23,6.88l-18.08-.23c.67-1.72,1.64-3.31,2.87-4.68,2.64-2.6,6.57-3.37,9.99-1.96h0ZM51.17,24.64h0c.32-.27.5-.34.47-.35h.14c.19.08.37.19.52.33,4.27,3.55,6.96,8.64,7.48,14.17-1.54.63-2.94,1.56-4.11,2.74-1.72,1.92-3.05,4.16-3.92,6.58-.88-2.42-2.22-4.64-3.93-6.56-1.17-1.18-2.57-2.12-4.11-2.74.52-5.53,3.2-10.62,7.47-14.17h-.01ZM39.99,41.53c1.96.28,3.77,1.2,5.14,2.63h0c1.23,1.38,2.21,2.97,2.87,4.69l-18.08.23c.7-4.86,5.2-8.24,10.07-7.55ZM16.9,32.36c5.43,1,10.16,4.28,13,9.01-2.11,2.08-3.45,4.82-3.78,7.77l-1.71.02-.03-.04c-4.56-4.41-7.24-10.41-7.48-16.76ZM60,84.68c-2.73.45-5.49.67-8.25.66-2.77,0-5.53-.23-8.25-.68-1.16-.11-2.24-.63-3.05-1.46-.69-.88-1.04-1.98-1.01-3.1-.03-.84,0-1.68.05-2.52,0-.83.27-1.65.75-2.33.96-1.05,2.37-1.57,3.79-1.39,1.36.05,2.74.05,4.11.05,1.21,0,2.42.07,3.6.03s2.4-.03,3.6-.03c1.39,0,2.77,0,4.11-.05,1.43-.18,2.86.35,3.82,1.42.47.69.73,1.5.74,2.33.06.83.07,1.67.05,2.51,0,.08,0,.16,0,.23.07,2.32-1.75,4.27-4.08,4.34h.01ZM90.25,57.8c-2.16.95-4.52,1.36-6.87,1.19-4.76.03-9.48-.22-14.1-.46-5.73-.29-11.81-.84-17.68-.65,0,0-11.78.37-17.51.65-4.63.24-9.45.45-14.11.46-2.35.17-4.7-.24-6.86-1.18-1.29-.71-.16-.83,1.44-1.47,3.63-.66,6.87-.91,10.5-.87,7.46-.09,19.07-.53,26.83-.6,7.17.05,20.38.52,28.06.61,3.4-.04,6.33.26,9.75.86,1.59.64,1.85.76.56,1.47h0Z"/></svg>