<?xml version="1.0" encoding="UTF-8"?><svg id="a" xmlns="http://www.w3.org/2000/svg" viewBox="0 0 64.32 64.82"
   width="100" height="100" preserveAspectRatio="xMidYMax meet"><path d="M63.89,22.5c-.55-.73-1.49-1.06-2.38-.82-9.98,2.66-16.72.06-19.26-1.26v-7.18c.05-1.99-.97-3.86-2.68-4.89C29.34,2.64,19.01,1.21,8.83,4.11v34.28c5.6-3.17,11.94-4.8,18.38-4.74v8.61h0c0,1.52.65,2.96,1.78,3.97,1.13,1.01,2.65,1.49,4.16,1.31,15.78-1.96,26.81-16.41,30.82-22.55.49-.77.46-1.77-.08-2.51h0Z"/><path d="M3.17,0C1.42,0,0,1.42,0,3.17v58.48c0,.84.33,1.65.92,2.24.6.6,1.4.93,2.24.93s1.65-.33,2.24-.93c.6-.6.93-1.4.93-2.24V3.17c0-1.75-1.42-3.16-3.17-3.17Z"/></svg>