<?xml version="1.0" encoding="UTF-8"?><svg id="a" xmlns="http://www.w3.org/2000/svg" viewBox="0 0 88.81 67.91"
   width="100" height="100" preserveAspectRatio="xMidYMax meet"><path d="M20.9,10.45c0,5.77-4.68,10.45-10.45,10.45S0,16.22,0,10.45,4.68,0,10.45,0s10.45,4.68,10.45,10.45Z"/><path d="M26.12,10.45c0,8.66-7.02,15.67-15.67,15.67H2.61C1.29,26.12,0,26.12,0,28.73,0,29.44,0,31.95,0,33.96,0,36.57,2.03,36.57,2.61,36.57h86.2v-10.45c0-5.22,0-15.67-26.12-15.67H26.12Z"/><path d="M5.22,41.79C2.61,41.79,0,44.41,0,47.02,0,52.19,0,58.22,0,62.69c0,2.61,2.61,5.22,5.22,5.22s5.22-2.61,5.22-5.22v-10.45s67.91,0,67.91,0v10.45c0,2.61,2.61,5.22,5.22,5.22s5.22-2.61,5.22-5.22v-15.67c0-2.61-2.61-5.22-5.22-5.22H5.22Z"/></svg>