<?xml version="1.0" encoding="UTF-8"?><svg id="a" xmlns="http://www.w3.org/2000/svg" viewBox="0 0 80.08 67.89"
   width="100" height="100" preserveAspectRatio="xMidYMax meet"><path d="M33.55,0c-5.71-.03-11.24.98-15.62,3.64C5.09,11.44,8.96,24.08,7.61,31.07c-.78,4.02-3.44,6.26-5.53,9.18C0,43.16,0,46.19,0,48.27s.1-1.37.21,6.45,7.89,10.64,13.97,12.09c18.42,4.42,28.07-6.12,35.14-9.18,7.71-3.34,16.48-3.34,23.67-9.38,5.61-4.71,7.16-8,7.09-11.57-.05-2.61-.29-4.68-.52-9.37-.46-9.41-10.32-16.16-20.23-21.17C53.14,3.02,43.08.06,33.55,0h0ZM31.84,5.32c6.33-.36,13.23.82,19.35,3.16,5.97,2.27,11.74,4.95,16.02,8.4,4.29,3.45,7.18,7.93,6.57,13.25-.29,2.53-1.85,4.61-3.88,6.34-2.02,1.72-4.57,3.16-7.29,4.41-5.42,2.5-11.52,4.23-15.02,5.23-.82.24-2.8,1.3-5.2,2.64-2.4,1.34-5.32,2.95-8.61,4.34-6.56,2.77-14.67,4.65-22.69,1.3-1.47-.61-2.75-1.38-3.75-2.43-1-1.05-1.67-2.44-1.77-3.96-.21-3.05,1.47-6.32,4.97-10.43,2.98-3.49,3.27-8.14,3.22-12.87-.02-2.37-.13-4.71.06-6.91s.7-4.33,2.16-6c3.68-4.2,9.53-6.09,15.85-6.45h0ZM32.04,8.82c-5.74.32-10.63,2.08-13.42,5.26-.73.83-1.14,2.16-1.3,4-.16,1.85-.07,4.12-.04,6.56.05,4.88-.18,10.62-4.06,15.18-3.23,3.8-4.24,6.46-4.14,7.92.05.73.29,1.24.82,1.8.53.56,1.39,1.12,2.56,1.61,6.82,2.85,13.85,1.29,19.98-1.3,3.07-1.29,5.88-2.84,8.26-4.17,2.38-1.33,4.23-2.45,5.94-2.95,3.52-1.01,9.45-2.71,14.52-5.05,2.54-1.17,4.84-2.5,6.48-3.89,1.64-1.39,2.52-2.77,2.67-4.06.44-3.9-1.52-7.09-5.29-10.12-4.17-3.17-8.9-5.5-13.79-7.37-2.2-.84-4.08.5-4.59,2.79-.13.58-.29,1.19-.47,1.81-.79,2.63.27,5.11,2.95,5.73l9.46,2.21c.94.22,1.53,1.16,1.31,2.1-.22.94-1.16,1.53-2.1,1.3l-10.76-2.52c-2.63-.62-5.65.99-7.58,2.88-.12.11-.24.23-.37.34-9.22,7.77-19.42,16.59-19.42,16.59-.7.67-1.8.64-2.47-.05-.67-.7-.64-1.8.05-2.47,0,0,9.98-9.25,18.9-17.59,5.16-4.82,6.85-9.24,7.38-12.34.29-1.71-1.13-3.45-2.84-3.72-2.94-.46-5.88-.64-8.64-.48h0Z"/></svg>