<?xml version="1.0" encoding="UTF-8"?><svg id="a" xmlns="http://www.w3.org/2000/svg" viewBox="0 0 83.22 71.18"
   width="100" height="100" preserveAspectRatio="xMidYMax meet"><path d="M15.67,39.85c1.94-1.99,4.63-3.26,7.62-3.34.06,0,.12-.01.18-.01h0c3.05-.02,5.82,1.18,7.84,3.15,1.99,1.94,3.26,4.63,3.34,7.62,0,.06.01.12.01.18h0c.03,3.05-1.17,5.82-3.14,7.84-1.98,2.03-4.73,3.3-7.79,3.34-3.05.04-5.84-1.16-7.86-3.14-2.03-1.98-3.3-4.73-3.34-7.79-.04-3.05,1.16-5.84,3.14-7.86h0ZM30.8,30.03c-.58-.24-1.18-.45-1.77-.63-.62-.14-1.14-.63-1.28-1.3l-.89-4.12-6.77.09-.75,3.95c-.09.64-.54,1.2-1.19,1.39-.64.19-1.26.41-1.87.67-.59.25-1.16.52-1.7.81-.54.34-1.24.35-1.8-.01l-3.55-2.29-4.73,4.85,2.29,3.37c.36.51.43,1.2.11,1.78-.32.59-.61,1.2-.85,1.79-.24.58-.45,1.18-.64,1.8-.15.61-.64,1.11-1.29,1.24l-4.12.89.09,6.77,3.95.75c.64.09,1.2.54,1.39,1.19.19.64.41,1.26.67,1.87.25.59.52,1.16.81,1.7.34.54.35,1.24-.01,1.8l-2.29,3.55,4.85,4.73,3.37-2.29c.51-.36,1.2-.43,1.78-.11.6.32,1.2.61,1.79.85.58.24,1.18.45,1.77.63.62.14,1.14.63,1.28,1.3l.89,4.12,6.77-.09.75-3.95c.09-.64.54-1.2,1.19-1.39.64-.19,1.26-.41,1.87-.67.59-.25,1.16-.52,1.7-.81.54-.34,1.24-.35,1.8.01l3.55,2.29,4.73-4.85-2.29-3.37c-.36-.51-.43-1.2-.11-1.78.32-.6.61-1.2.85-1.79.24-.58.45-1.18.63-1.77.14-.62.63-1.14,1.3-1.28l4.12-.89-.09-6.77-3.95-.75c-.64-.09-1.2-.54-1.39-1.19-.19-.64-.41-1.26-.67-1.87-.25-.59-.52-1.16-.81-1.7-.34-.54-.35-1.24.01-1.8l2.29-3.55-4.85-4.73-3.37,2.29c-.51.36-1.2.43-1.78.11-.59-.32-1.2-.61-1.79-.85h0ZM51.7,15.87c1.98-2.03,4.73-3.3,7.79-3.34,3.05-.04,5.84,1.16,7.86,3.14,2.03,1.98,3.3,4.73,3.34,7.79.04,3.05-1.16,5.84-3.14,7.86-1.98,2.03-4.73,3.3-7.79,3.34-3.05.04-5.84-1.16-7.86-3.14-2.03-1.98-3.3-4.73-3.34-7.79-.04-3.05,1.16-5.84,3.14-7.86h0ZM48.2,40.85l-3.52-.67c-.14-.41-.3-.81-.46-1.21-.17-.4-.35-.8-.55-1.2l2.51-3.89c.43-.66.34-1.55-.24-2.12l-6.78-6.61c-.56-.59-1.48-.71-2.18-.23l-.88.6-.07-5.18,4.12-.89c.65-.14,1.14-.64,1.29-1.25.18-.62.39-1.22.64-1.8.25-.6.53-1.2.85-1.79.31-.59.25-1.27-.11-1.78l-2.29-3.37,4.73-4.85,3.55,2.29c.57.36,1.27.35,1.8.01.54-.29,1.11-.56,1.7-.81.61-.25,1.23-.48,1.87-.67.66-.2,1.11-.75,1.19-1.39l.75-3.95,6.77-.09.89,4.12c.14.66.66,1.16,1.28,1.3.6.18,1.19.39,1.77.63.6.25,1.2.53,1.79.85.59.31,1.27.25,1.78-.11l3.37-2.29,4.85,4.73-2.29,3.55c-.36.57-.35,1.27-.01,1.8.29.54.56,1.11.81,1.7.25.61.48,1.23.67,1.87.2.66.75,1.11,1.39,1.19l3.95.75.09,6.77-4.12.89c-.66.14-1.16.66-1.3,1.28-.18.6-.39,1.19-.63,1.77-.25.6-.53,1.2-.85,1.79-.31.59-.25,1.27.11,1.78l2.29,3.37-4.73,4.85-3.55-2.29c-.57-.36-1.27-.35-1.8-.01-.54.29-1.11.56-1.7.81-.61.25-1.23.48-1.87.67-.66.2-1.11.75-1.19,1.39l-.75,3.95-6.77.09-.89-4.12c-.14-.65-.64-1.14-1.25-1.29-.62-.18-1.22-.39-1.8-.64-.6-.25-1.2-.53-1.79-.85-.59-.31-1.27-.25-1.78.11l-.65.44h0Z" fill-rule="evenodd"/></svg>