<?xml version="1.0" encoding="UTF-8"?><svg id="a" xmlns="http://www.w3.org/2000/svg" viewBox="0 0 83.39 87.83"
   width="100" height="100" preserveAspectRatio="xMidYMax meet"><path d="M1.18,30.63c3.49,25.19,14.28,39.38,22.79,46.88,8.13,7.17,15.77,9.75,17.68,10.31,1.9-.71,9.53-3.85,17.68-11.35,8.49-7.81,19.26-22.08,22.83-45.87-3.34-1.41-5.57-4.64-5.57-8.28,0-4.13,2.84-7.66,6.81-8.71,0-2.7,0-9.96,0-13.61-5.99,1.81-23.71,6.65-41.69,6.65S6,1.81.02,0C0,3.6,0,10.52,0,13.61c3.96,1.05,6.8,4.58,6.8,8.71,0,3.67-2.26,6.91-5.63,8.31Z"/></svg>