<?xml version="1.0" encoding="UTF-8"?><svg id="a" xmlns="http://www.w3.org/2000/svg" viewBox="0 0 85.39 84.04"
   width="100" height="100" preserveAspectRatio="xMidYMax meet"><path d="M.47,19.01h59.66l-2.15-5.5h-5.31c-.3,0-.59-.11-.82-.34h0s-4.35-4.29-4.35-4.29c-.19-.16-.33-.38-.39-.63h0l-1.24-5.38L33.12.11l-8.12,4.58c-.41.29-.98.29-1.4-.04L17.77.05l-9.5,1.82-.07,8.17c.04.49-.23.97-.71,1.17h0S0,14.4,0,14.4l.47,4.61ZM40.39,16.2c-.32-.56-.13-1.27.43-1.59l4.73-2.73c.56-.32,1.27-.13,1.59.43.32.56.13,1.27-.43,1.59l-4.73,2.73c-.56.32-1.27.13-1.59-.43ZM27.49,9.6c-.32-.56-.13-1.27.43-1.6l4.73-2.73c.56-.32,1.27-.13,1.6.43.32.56.13,1.27-.43,1.6l-4.73,2.73c-.56.32-1.27.13-1.6-.43ZM10.85,12.72c-.32-.56-.13-1.27.43-1.59l4.73-2.73c.56-.32,1.27-.13,1.59.43.32.56.13,1.27-.43,1.59l-4.72,2.73c-.56.32-1.27.13-1.59-.43h0Z" fill-rule="evenodd"/><path d="M62.64,19.01h22.21l-2.21-5.64h-5.31c-.3,0-.59-.11-.82-.34h0s-4.35-4.29-4.35-4.29c-.19-.16-.33-.38-.39-.63h0l-1.23-5.38-12.57-2.73-8.06,7.99,3.23,3.18h5.63c.52,0,.96.34,1.12.81l2.75,7.03ZM72.17,13.41l-4.73,2.73c-.56.32-1.27.13-1.59-.43-.32-.56-.13-1.27.43-1.59l4.73-2.73c.56-.32,1.27-.13,1.59.43.32.55.13,1.27-.43,1.59ZM63.17,5.41l-4.73,2.73c-.56.32-1.27.13-1.59-.43-.32-.56-.13-1.27.43-1.59l4.73-2.73c.56-.32,1.27-.13,1.59.43.32.56.13,1.27-.43,1.59Z" fill-rule="evenodd"/><path d="M85.39,33.06v-11.71c-28.02,0-56,.07-84.04,0h-.76v11.71h84.8,0Z" fill-rule="evenodd"/><path d="M51.27,66.77h.01s0,0-.01,0ZM76.1,73.46h-5.3c-.32-2.6-1.52-4.93-3.28-6.7-2.08-2.08-4.95-3.37-8.12-3.37s-6.04,1.28-8.11,3.36c.02-.02.04-.04.06-.05-.04.04-.09.09-.13.13.02-.02.04-.04.05-.06-1.76,1.76-2.95,4.09-3.27,6.68h-10.02c-.32-2.6-1.52-4.93-3.28-6.69-2.08-2.08-4.95-3.37-8.12-3.37s-6.04,1.29-8.12,3.36h0s0,.01,0,.02c-1.76,1.76-2.95,4.09-3.27,6.69h-5.3l-3.38-38.06h72.98l-3.38,38.06ZM18.68,43.25c-.65,0-1.17.52-1.17,1.17s.52,1.17,1.17,1.17h48.62c.65,0,1.17-.52,1.17-1.17s-.52-1.17-1.17-1.17H18.68ZM21.71,56.43c0,.65.52,1.17,1.17,1.17h40.22c.65,0,1.17-.52,1.17-1.17s-.52-1.17-1.17-1.17H22.88c-.65,0-1.17.53-1.17,1.17Z" fill-rule="evenodd"/><path d="M35.72,74.63c-.05-2-.76-3.85-1.9-5.33l-5.59,5.59,5.59,5.59c1.2-1.55,1.91-3.48,1.91-5.59,0-.07,0-.15,0-.22v-.04h0Z" fill-rule="evenodd"/><path d="M24.92,74.89l-5.59-5.59c-1.15,1.49-1.85,3.34-1.9,5.36v.02c0,.07,0,.14,0,.21,0,2.11.71,4.04,1.91,5.59l5.59-5.59Z" fill-rule="evenodd"/><path d="M26.57,73.24l5.59-5.59c-1.55-1.2-3.48-1.91-5.59-1.91s-4.04.71-5.59,1.91l5.59,5.59Z" fill-rule="evenodd"/><path d="M32.16,82.14l-5.59-5.59-5.59,5.59c1.55,1.2,3.48,1.91,5.59,1.91s4.05-.71,5.59-1.91Z" fill-rule="evenodd"/><path d="M57.74,74.89l-5.59-5.59c-1.15,1.49-1.85,3.34-1.9,5.36v.02c0,.07,0,.14,0,.21,0,2.11.71,4.04,1.91,5.59l5.59-5.59Z" fill-rule="evenodd"/><path d="M64.99,67.65c-1.55-1.2-3.48-1.91-5.59-1.91s-4.04.71-5.59,1.91l5.59,5.59,5.59-5.59Z" fill-rule="evenodd"/><path d="M64.99,82.14l-5.59-5.59-5.59,5.59c1.55,1.2,3.48,1.91,5.59,1.91s4.04-.71,5.59-1.91Z" fill-rule="evenodd"/><path d="M68.54,74.63c-.05-2-.76-3.85-1.9-5.33l-5.59,5.59,5.59,5.59c1.2-1.55,1.91-3.48,1.91-5.59,0-.07,0-.15,0-.22v-.02s0-.01,0-.02h0Z" fill-rule="evenodd"/></svg>