<?xml version="1.0" encoding="UTF-8"?><svg id="a" xmlns="http://www.w3.org/2000/svg" viewBox="0 0 276 162.2" preserveAspectRatio="xMidYMax meet"><path d="M270.3,152.4L187.7,9.4c-3.4-5.9-9.5-9.4-16.3-9.4s-12.9,3.5-16.3,9.4l-43.4,75.2-20.2-34.9c-2.8-4.8-7.8-7.7-13.3-7.7s-10.5,2.9-13.3,7.7L5.7,152.4l-5.7,9.8h276l-5.7-9.8ZM90.3,81.1l-4.9,5.8-11.6-9.1-7,3.3-15.2,8.5,21.1-36.5c2.5-4.4,8.8-4.4,11.3,0l17.5,30.4s-11.2-2.4-11.2-2.4ZM196.9,68.7l-13.1,10.9-15.6-16.9-22.9,39.4,1.8-33.4c-2,0-18.9,7.5-17.9,5.8l34.8-60.3c3.5-6,12.2-6,15.7,0l40.6,70.3-23.4-15.8Z"/></svg>