<?xml version="1.0" encoding="UTF-8"?><svg id="a" xmlns="http://www.w3.org/2000/svg" viewBox="0 0 86.73 70.74"><path d="M63.58,61.06h0ZM38.5,5.38v7.43h6.7l-6.7-7.43ZM8.55,23.15c-.52.02-.95-.43-.96-1.01-.01-.57.39-1.05.91-1.07.02,0,.04,0,.05,0h32.42c.52.02.92.49.91,1.07-.01.55-.41.99-.91,1.01H8.55ZM5.15,31.42c-.52,0-.93-.46-.93-1.04s.42-1.04.93-1.04h35.83c.52,0,.93.46.93,1.04s-.42,1.04-.93,1.04H5.15ZM5.15,39.7c-.52-.02-.92-.49-.91-1.07.01-.55.41-.99.91-1.01h35.83c.52.02.92.49.91,1.07-.01.55-.41.99-.91,1.01H5.15ZM5.15,47.97c-.52.02-.95-.43-.96-1.01-.01-.57.39-1.05.91-1.07.02,0,.04,0,.05,0h35.83c.52.02.92.49.91,1.07-.01.55-.41.99-.91,1.01H5.15ZM5.15,56.24c-.52,0-.93-.46-.93-1.04s.42-1.04.93-1.04h35.83c.52,0,.93.46.93,1.04s-.42,1.04-.93,1.04H5.15ZM31.4,64.51c-.52.02-.95-.43-.96-1.01-.01-.57.39-1.05.91-1.07.02,0,.04,0,.05,0h9.57c.52.02.92.49.91,1.07-.01.55-.41.99-.91,1.01h-9.57ZM6.08,3.91v5.98l1.66-1.24c.31-.25.73-.25,1.05-.01l1.68,1.26V3.91h-4.4ZM12.35,3.91h24.29v9.93c0,.57.42,1.04.93,1.04h8.95v55.76h-3.79l-42.73-.03V3.91h4.22v7.92h0c0,.57.42,1.03.93,1.03.18,0,.36-.06.52-.17l2.61-1.95,2.55,1.91c.4.36.99.28,1.31-.16.13-.18.2-.41.2-.65V3.91Z" fill-rule="evenodd"/><path d="M55.3,7.09c1.85,1.84,12.56,12.78,15.91,22.73.68,2.02.94,4.84,1.01,7.15h-3.14c-.03-1.15-.12-2.44-.3-3.65-5.48-1.62-9.88-4.6-13.34-9.14-.7-.91,1.82-1.8,3.77-2.56-.48-.81-6.63-1.99-6.99-2.81-1.8-4.14-2.45-8.89-5.54-17.77-.08-.24-.04-.51.11-.72S47.18,0,47.43,0c5.4.08,9.84.73,12.92,2.38.15.08.25.24.25.41,0,1.81.16,3.48,2,5.65.15-1.02.5-2.3,1.04-3.01.08-.1.21-.17.34-.17.13,0,.26.04.36.13,3.18,3.12,5.6,7.22,6.74,9.75,1.85,4.13,2.44,8,2.03,11.88-5.62-9.2-7.15-10.6-10.5-14.5-2.34-2.72-5.57-5.01-7.31-5.44h0ZM80.11,50.07v.04c0,4.03,6.62,3.16,6.62,8.75v8.72c0,1.74-1.42,3.16-3.16,3.16h-24c-1.74,0-3.16-1.42-3.16-3.16v-8.72c0-5.59,6.62-4.72,6.62-8.75v-.04h17.08ZM80.17,40.14c.63,0,1.23.25,1.67.69.45.44.69,1.05.69,1.67v2.04c0,.63-.25,1.23-.69,1.67-.44.45-1.05.69-1.67.69h-17.22c-.63,0-1.23-.25-1.67-.69-.45-.44-.69-1.05-.69-1.67v-2.04c0-.63.25-1.23.69-1.67.44-.45,1.05-.69,1.67-.69h17.22Z" fill-rule="evenodd"/></svg>