<?xml version="1.0" encoding="UTF-8"?><svg id="a" xmlns="http://www.w3.org/2000/svg" viewBox="0 0 100 100"><path d="M24.72,86.82v-6.75c0-2,1.63-3.62,3.63-3.63h43.33c1.99.02,3.61,1.64,3.61,3.63v6.75c0,2-1.63,3.62-3.63,3.63H28.34c-2-.01-3.61-1.63-3.62-3.63h0ZM56.68,42.16v-6.69h-13.32v6.69c-.04,11.79-4.4,23.15-12.28,31.92h37.86c-7.87-8.77-12.24-20.13-12.28-31.92h.02ZM42.17,25.85c-2.01,0-3.63,1.63-3.63,3.63s1.63,3.63,3.63,3.63h15.68c2.01,0,3.63-1.63,3.63-3.63s-1.63-3.63-3.63-3.63c0,0-15.68,0-15.68,0ZM42.17,23.5h15.68c.17,0,.35,0,.53.06,3.14-3.34,4-8.23,2.18-12.44s-5.97-6.93-10.55-6.93-8.73,2.73-10.55,6.93c-1.82,4.21-.96,9.1,2.18,12.44.18-.01.32-.06.53-.06h0ZM76.45,92.81H23.57c-1-.06-1.98.3-2.7.98-.73.69-1.14,1.64-1.14,2.64s.41,1.95,1.14,2.64c.72.69,1.7,1.04,2.7.99h52.87c1,.05,1.98-.3,2.7-.99.73-.69,1.14-1.64,1.14-2.64s-.41-1.95-1.14-2.64c-.72-.68-1.7-1.04-2.7-.98h.01Z"/></svg>