<?xml version="1.0" encoding="UTF-8"?><svg id="a" xmlns="http://www.w3.org/2000/svg" viewBox="0 0 55.99 88.06"
   width="100" height="100" preserveAspectRatio="xMidYMax meet"><path d="M16.82,2.17c-6.67,2.61-11.97,7.87-14.61,14.53C-1.71,26.64-.15,36.33,4.74,43.6c5.08,7.5,9.39,15.49,12.89,23.84,2.59,6.26,5.08,12.57,7.15,18.36.64,1.77,2.59,2.69,4.36,2.06.96-.34,1.72-1.1,2.06-2.06,2.24-6.28,5-13.19,7.82-20,3.26-7.73,7.31-15.1,12.08-22,3.18-4.64,4.89-10.13,4.89-15.76C55.99,8.93,36.92-5.68,16.82,2.17ZM27.99,42.54c-7.95,0-14.4-6.46-14.39-14.41,0-7.95,6.46-14.4,14.41-14.39,7.95,0,14.39,6.45,14.39,14.4,0,7.95-6.46,14.4-14.41,14.4Z"/></svg>