<?xml version="1.0" encoding="UTF-8"?><svg id="a" xmlns="http://www.w3.org/2000/svg" viewBox="0 0 100 100"><path d="M60.94,44.19c-.86.38-5.88,2.94-11.76,2.94s-10.89-2.56-11.76-2.94c-11.79,6.31-17.65,23.2-17.65,36.27,0,16.24,13.16,19.6,29.4,19.6s29.4-3.36,29.4-19.6c0-13.06-5.86-29.95-17.64-36.26h0Z"/><path d="M89.73,52.56l2.3-1.84c-8.5-10.62-18.4-12.46-23.83-12.56-.45.43-1.92,1.74-4.32,3.09.63.28,19.85,8.97,22.61,28.24l2.91-.42c-2.13-14.88-12.9-23.75-19.41-27.84,5.06.51,12.93,2.8,19.74,11.33Z"/><path d="M49.17,26.55c-7.97,0-14.7-7.96-14.7,0,0,3.59.78,8.17,2.94,11.76,1.49.96,5.88,2.94,11.76,2.94s11.32-2.65,11.76-2.94c2.17-3.6,2.94-8.17,2.94-11.76,0-7.96-6.73,0-14.7,0Z"/></svg>