<svg xmlns="http://www.w3.org/2000/svg" version="1.1" viewBox="-5.0 -10.0 110.0 135.0">
 <path d="m64.059 15.02c-2.1484 0.53516-6.1367 3.3711-9.0352 6.7305-4.1484 4.8164-6.0352 6.5547-12.988 17.93-0.50391-4.8047 0.21875-9.5898 2.5078-14.695 1.4062-3.1367 4.3984-8.207 8.332-12.062 0.11719-0.11328 0.27734-0.17188 0.44141-0.16406 0.16406 0.007813 0.31641 0.085938 0.41797 0.21484 0.66797 0.875 1.1055 2.4648 1.2852 3.7227 2.2695-2.6875 2.4609-4.75 2.4727-6.9922 0-0.21484 0.11719-0.41016 0.30469-0.51172 3.8086-2.0352 9.3047-2.8438 15.98-2.9414 0.31641-0.003906 0.61719 0.14453 0.80469 0.40234 0.1875 0.25781 0.23438 0.58984 0.13281 0.89062-3.8242 10.98-4.6328 16.855-6.8555 21.969-0.44531 1.0234-8.0508 2.4844-8.6445 3.4805 2.4102 0.9375 5.5234 2.0352 4.6602 3.1641-4.2773 5.6211-9.7227 9.3008-16.496 11.305-0.21875 1.5-0.32812 3.0859-0.36719 4.5117h-3.8867c0.085938-2.8555 0.41016-6.3438 1.25-8.8438 4.1484-12.312 17.387-25.836 19.676-28.113zm-9.5625 53.148v0.046875c0 4.9805 8.1836 3.9023 8.1836 10.816v10.785c0 2.1562-1.75 3.9062-3.9062 3.9062h-29.68c-2.1562 0-3.9062-1.75-3.9062-3.9062v-10.785c0-6.9102 8.1836-5.8359 8.1836-10.816v-0.046875zm0.085937-12.285c0.77734 0 1.5234 0.30859 2.0703 0.85938 0.55078 0.55078 0.85938 1.293 0.85938 2.0703v2.5234c0 0.77734-0.30859 1.5234-0.85938 2.0703-0.55078 0.55078-1.293 0.85938-2.0703 0.85938h-21.289c-0.77734 0-1.5234-0.30859-2.0703-0.85938-0.55078-0.55078-0.85938-1.293-0.85938-2.0703v-2.5234c0-0.77734 0.30859-1.5234 0.85938-2.0703 0.55078-0.55078 1.293-0.85938 2.0703-0.85938z" fill-rule="evenodd"/>
<text x="0.0" y="117.5" font-size="5.0" font-weight="bold" font-family="Arbeit Regular, Helvetica, Arial-Unicode, Arial, Sans-serif" fill="#000000">by Muhammad Nur Auliady Pamungkas</text><text x="0.0" y="122.5" font-size="5.0" font-weight="bold" font-family="Arbeit Regular, Helvetica, Arial-Unicode, Arial, Sans-serif" fill="#000000">from Noun Project</text></svg>