<?xml version="1.0" encoding="UTF-8"?><svg id="a" xmlns="http://www.w3.org/2000/svg" viewBox="0 0 100 100"><path d="M56.23,45.21l3.7-14.65-3.04-4.24,3.81-15.07c.17-.64,1.02-.79,1.41-.25l2.7,3.76c.22.32.66.41,1.01.24l4.18-2.15c.6-.31,1.3.21,1.13.83l-3.81,15.07-4.73,2.43-3.31,13.14c-1.01.31-2.03.62-3.05.89h0ZM41.29,93.37c1.04,3.83,4.68,6.69,9,6.74,5.18.06,9.46-3.93,9.51-8.88v-.43c-5.98,1.7-12.26,2.75-18.52,2.56h0ZM41.36,59.02l-.09,7.59,18.88-10.13c-6.08,1.69-12.44,2.71-18.79,2.55h0ZM41.1,80.87h.08c6.04.24,12.17-.84,17.92-2.56l.85-.25.15-12.54-18.93,10.17-.06,5.18h-.01ZM41.07,83.5l-.08,7.22c6.36.24,12.79-.89,18.84-2.68l.08-7.22c-6.05,1.8-12.48,2.91-18.84,2.68ZM60.32,46.76c-6.16,1.87-12.33,3.53-18.84,3l-.08,6.63c6.36.16,12.77-.93,18.84-2.68l.08-6.95ZM48.51,46.91c.92-.12,1.84-.29,2.76-.47l.2-17.25,4.03-3.39.18-15.5c0-.64-.79-1.01-1.3-.57l-3.57,3c-.31.25-.75.24-1.05-.01l-3.5-3.09c-.49-.45-1.31-.1-1.32.54l-.18,15.5,3.95,3.48-.21,17.76h-.01ZM33.86,30.02l4.72,2.46,3.66,14.71c.95.06,1.89.07,2.83.03l-3.83-15.35,3.06-4.22-3.76-15.08c-.16-.64-1.02-.8-1.41-.25l-2.7,3.73c-.23.32-.67.42-1.02.23l-4.17-2.18c-.61-.32-1.3.2-1.14.83l3.76,15.08h-.02ZM84.58,42.55c-1.68.25-3.03,1.2-3.75,2.68-.55,1.09-.62,2.27-.33,3.34l-57.38,30.81-5.09-1.65-14.14,7.59c-.59.31-.51,1.16.13,1.36l4.5,1.46c.38.12.6.51.51.87l-1.03,4.44c-.14.64.56,1.14,1.15.81l14.14-7.58,1.18-5.02,57.36-30.79c.83.83,1.94,1.41,3.22,1.53,1.7.15,3.24-.44,4.35-1.69l9.16-10.29-13.96,2.12h0Z" fill-rule="evenodd"/></svg>