<?xml version="1.0" encoding="UTF-8"?><svg id="a" xmlns="http://www.w3.org/2000/svg" viewBox="0 0 72 84"
   width="100" height="100" preserveAspectRatio="xMidYMax meet"><path d="M27.85,56.56l-3.8,3.62-3.8-3.62,3.8-5.42,3.8,5.42Z"/><path d="M69.14,62.26c-.2-.58-.22-1.21-.07-1.81l2.83-11.18c.14-.55.13-1.13-.03-1.67l-5.96-20.59c-.22-.78-.15-1.61.22-2.33l5.14-10.13c.53-1.04.45-2.27-.21-3.24l-4.71-6.97c-.5-.74-1.29-1.25-2.19-1.4L46.56.04c-.44-.07-.9-.06-1.33.05l-11.52,2.84c-.6.15-1.24.12-1.83-.07L24.09.31c-.74-.24-1.53-.22-2.25.06L7.5,6.03c-.62.24-1.14.66-1.51,1.21L.55,15.29c-.36.53-.55,1.16-.55,1.79v8.1c0,.41.08.82.23,1.2l5.68,14.01c.4.99.28,2.11-.32,2.99l-4.8,7.1c-.51.76-.68,1.69-.45,2.58l2.73,10.76c.13.51.13,1.05,0,1.57l-2.44,9.63c-.37,1.47.34,3,1.71,3.68l10.07,4.97c.45.22.96.34,1.47.34h38.24c.22,0,.43-.02.64-.06l14.21-2.8c1.15-.23,2.1-1.05,2.47-2.15l2.33-6.9c.22-.66.22-1.38,0-2.04l-2.63-7.78ZM16.34,28.26l5.47-2.6v-11.44c0-1.24,1.01-2.25,2.25-2.25s2.25,1.01,2.25,2.25v6.08l3.53-1.68c1.12-.54,2.46-.06,3,1.06.53,1.12.06,2.46-1.06,3l-5.47,2.6v11.44c0,1.24-1.01,2.25-2.25,2.25s-2.25-1.01-2.25-2.25v-6.08l-3.53,1.68c-.31.15-.64.22-.97.22-.84,0-1.65-.47-2.03-1.28-.54-1.12-.06-2.46,1.06-3ZM32.43,71.27c-.44.46-1.04.7-1.63.7-.56,0-1.12-.21-1.55-.62l-5.2-4.95-5.2,4.95c-.9.86-2.32.82-3.18-.08-.86-.9-.82-2.33.08-3.18l5.04-4.8-5.04-4.8c-.81-.77-.93-2.01-.29-2.92l6.75-9.64c.84-1.21,2.85-1.21,3.69,0l6.75,9.64c.64.91.51,2.15-.29,2.92l-5.04,4.8,5.04,4.8c.9.86.94,2.28.08,3.18ZM42.95,21.64c-.56-.42-.9-1.09-.9-1.8s.33-1.37.9-1.8l7.5-5.62c1-.75,2.4-.55,3.15.45.75,1,.54,2.41-.45,3.15l-5.1,3.83,5.1,3.83c.57.42.9,1.09.9,1.8s-.33,1.37-.9,1.8l-5.1,3.83,5.1,3.83c.99.74,1.19,2.15.45,3.15-.44.59-1.12.9-1.8.9-.47,0-.94-.15-1.35-.45l-7.5-5.62c-.57-.42-.9-1.09-.9-1.8s.33-1.37.9-1.8l5.1-3.83-5.1-3.83ZM56.35,55.28l-6.05,5.76v8.68c0,1.24-1.01,2.25-2.25,2.25s-2.25-1.01-2.25-2.25v-8.68l-6.05-5.76c-.9-.86-.94-2.28-.08-3.18.86-.9,2.28-.94,3.18-.08l2.95,2.81v-7.61c0-1.24,1.01-2.25,2.25-2.25s2.25,1.01,2.25,2.25v7.61l2.95-2.81c.9-.86,2.32-.82,3.18.08s.82,2.32-.08,3.18Z"/></svg>