<?xml version="1.0" encoding="UTF-8"?><svg id="a" xmlns="http://www.w3.org/2000/svg" viewBox="0 0 87.5 56.75"
   width="100" height="100" preserveAspectRatio="xMidYMax meet"><path d="M42.18.02l-15.62,22.35H6.25v1.56h0v31.26c0,.86.7,1.55,1.55,1.55h31.24v-12.5c0-.87.7-1.57,1.57-1.57h6.24c.87,0,1.57.7,1.57,1.57v12.5h31.25c.86,0,1.55-.7,1.55-1.55V22.38h-3.66s-16.65,0-16.65,0L45.31,0l-3.13.02ZM12.53,3.63c-.97,0-1.88.49-2.42,1.3L.16,18c-.39.51-.03,1.25.62,1.25h24.14l10.92-15.62H12.53ZM51.65,3.63l10.92,15.62h23.95c.78,0,1.25-.86.82-1.52l-8.51-12.81c-.54-.81-1.45-1.3-2.42-1.3h-24.77ZM43.75,14.56h0c1.25,0,2.44.5,3.32,1.38s1.37,2.07,1.37,3.31-.49,2.44-1.37,3.32-2.07,1.37-3.32,1.37-2.43-.49-3.31-1.37-1.38-2.07-1.38-3.32.5-2.43,1.38-3.31,2.07-1.38,3.31-1.38h0ZM15.63,28.63h3.12c.87,0,1.56.7,1.56,1.56v4.97c0,.87-.7,1.56-1.56,1.56h-3.12c-.87,0-1.56-.7-1.56-1.56v-4.97c0-.87.7-1.56,1.56-1.56ZM28.13,28.63h3.12c.87,0,1.56.7,1.56,1.56v4.97c0,.87-.7,1.56-1.56,1.56h-3.12c-.87,0-1.56-.7-1.56-1.56v-4.97c0-.87.7-1.56,1.56-1.56ZM56.25,28.63h3.12c.87,0,1.56.7,1.56,1.56v4.97c0,.87-.7,1.56-1.56,1.56h-3.12c-.87,0-1.56-.7-1.56-1.56v-4.97c0-.87.7-1.56,1.56-1.56ZM68.75,28.63h3.12c.87,0,1.56.7,1.56,1.56v4.97c0,.87-.7,1.56-1.56,1.56h-3.12c-.87,0-1.56-.7-1.56-1.56v-4.97c0-.87.7-1.56,1.56-1.56ZM15.63,42.69h3.12c.87,0,1.56.7,1.56,1.56v4.97c0,.87-.7,1.56-1.56,1.56h-3.12c-.87,0-1.56-.7-1.56-1.56v-4.97c0-.87.7-1.56,1.56-1.56ZM28.13,42.69h3.12c.87,0,1.56.7,1.56,1.56v4.97c0,.87-.7,1.56-1.56,1.56h-3.12c-.87,0-1.56-.7-1.56-1.56v-4.97c0-.87.7-1.56,1.56-1.56ZM56.25,42.69h3.12c.87,0,1.56.7,1.56,1.56v4.97c0,.87-.7,1.56-1.56,1.56h-3.12c-.87,0-1.56-.7-1.56-1.56v-4.97c0-.87.7-1.56,1.56-1.56ZM68.75,42.69h3.12c.87,0,1.56.7,1.56,1.56v4.97c0,.87-.7,1.56-1.56,1.56h-3.12c-.87,0-1.56-.7-1.56-1.56v-4.97c0-.87.7-1.56,1.56-1.56Z"/></svg>