<?xml version="1.0" encoding="UTF-8"?><svg id="a" xmlns="http://www.w3.org/2000/svg" viewBox="0 0 78.17 88.37"><path d="M17.41,18.77l-3.31-14.25-.09-.92.13-.9.35-.84.55-.74.72-.58.83-.38.89-.17.92.06,42.49,8.19.88.28.77.49.62.66.45.8.24.89v.91s-.2.88-.2.88l-.43.82-8.36,12-1.51,7.85-.02.1-.28,1.48,12.11-7.13c.05-.41.09-.79.13-1.13.73-6.39,4.87-8.61,7.99-8.03,3.13.58,6.17,4.12,4.38,10.43-2.92,10.3-15.22,53.25-15.22,53.25-.27.94-1.22,1.52-2.18,1.33-.96-.2-1.61-1.1-1.5-2.07,0,0,4.02-33.37,5.86-49.07l-12.51,7.37-2.85,14.8-.02.1-1.58,8.19-.02.1-1.17,6.07,3.3,14.25.09.92-.13.9-.35.84-.55.74-.72.58-.83.38-.89.17-.92-.06L2.97,80.12l-.88-.28-.77-.49-.63-.66-.45-.8-.24-.89v-.91s.2-.88.2-.88l.43-.82,8.36-12,1.34-6.96.02-.1,1.24-6.42.02-.1,3-15.59.02-.1,1.41-7.3.02-.1,1.34-6.96ZM50.87,26.73l-30.04-5.79-.72,3.75,29.89,6.58.87-4.54ZM48.89,36.99l.39-2.02-29.89-6.58-.69,3.6,30.19,5ZM68.67,30.57c-.75,6.46-2.12,17.95-3.38,28.49,3.44-12.04,7.26-25.39,8.72-30.55.53-1.85.5-3.33.03-4.39-.32-.72-.85-1.2-1.47-1.31-.64-.12-1.33.14-1.91.71-.54.53-.98,1.28-1.28,2.26l1.48-.87c.9-.53,2.05-.23,2.58.67.53.9.23,2.05-.67,2.58l-4.09,2.41ZM47.3,45.23l.87-4.54-30.19-5-.72,3.75,30.04,5.79ZM45.87,52.68l.72-3.75-30.04-5.79-.87,4.54,30.19,5ZM44.29,60.87l.86-4.49-30.19-5-.56,2.91,29.89,6.58ZM43.03,67.43l.55-2.86-29.89-6.58-.7,3.65,30.04,5.79ZM17.8,3.78l3.09,13.34,31.34,6.04,7.83-11.23L17.8,3.78ZM3.8,76.45l42.26,8.14-3.09-13.34-31.34-6.04-7.83,11.23Z" fill-rule="evenodd"/></svg>