<?xml version="1.0" encoding="UTF-8"?><svg id="a" xmlns="http://www.w3.org/2000/svg" viewBox="0 0 76 76"
   width="100" height="100" preserveAspectRatio="xMidYMax meet"><path d="M41,73c0,1.66-1.34,3-3,3s-3-1.34-3-3v-5.15c.99.1,1.99.15,3,.15s2.01-.05,3-.15v5.15Z"/><path d="M38,18c1.02,0,2.02.08,3,.22v10.23c.57.18,1.11.41,1.62.68l7.24-7.23c1.62,1.19,3.05,2.62,4.24,4.24l-7.23,7.23c.27.52.5,1.06.68,1.62h10.23c.14.98.22,1.98.22,3s-.08,2.02-.22,3h-10.23c-.18.57-.41,1.11-.68,1.62l7.24,7.24c-1.19,1.62-2.62,3.05-4.24,4.24l-7.24-7.23c-.52.27-1.05.5-1.62.67v10.24c-.98.14-1.98.22-3,.22s-2.02-.08-3-.22v-10.24c-.57-.18-1.11-.4-1.62-.67l-7.23,7.23c-1.62-1.19-3.05-2.62-4.24-4.24l7.23-7.24c-.27-.52-.5-1.05-.68-1.62h-10.23c-.14-.98-.22-1.98-.22-3s.08-2.02.22-3h10.23c.18-.56.41-1.11.68-1.62l-7.24-7.23c1.2-1.62,2.62-3.05,4.25-4.24l7.23,7.23c.52-.27,1.06-.5,1.62-.68v-10.23c.98-.14,1.98-.22,3-.22h0ZM38,34c-2.21,0-4,1.79-4,4s1.79,4,4,4,4-1.79,4-4-1.79-4-4-4Z" fill-rule="evenodd"/><path d="M38,10c15.46,0,28,12.53,28,28s-12.54,28-28,28-28-12.54-28-28,12.53-28,28-28ZM38,16c-12.15,0-22,9.85-22,22s9.85,22,22,22,22-9.85,22-22-9.85-22-22-22Z" fill-rule="evenodd"/><path d="M14.77,56.98c1.27,1.55,2.69,2.97,4.24,4.24l-3.64,3.64c-1.17,1.17-3.07,1.17-4.24,0s-1.17-3.07,0-4.24l3.64-3.64Z"/><path d="M64.87,60.63c1.17,1.17,1.17,3.07,0,4.24s-3.07,1.17-4.24,0l-3.64-3.64c1.55-1.27,2.97-2.69,4.24-4.24l3.64,3.64Z"/><path d="M8.15,35c-.1.99-.15,1.99-.15,3s.05,2.01.15,3H3c-1.66,0-3-1.34-3-3s1.34-3,3-3h5.15Z"/><path d="M73,35c1.66,0,3,1.34,3,3s-1.34,3-3,3h-5.15c.1-.99.15-1.99.15-3s-.05-2.01-.15-3h5.15Z"/><path d="M11.13,11.13c1.17-1.17,3.07-1.17,4.24,0l3.64,3.64c-1.55,1.27-2.98,2.69-4.24,4.24l-3.64-3.64c-1.17-1.17-1.17-3.07,0-4.24Z"/><path d="M60.63,11.13c1.17-1.17,3.07-1.17,4.24,0s1.17,3.07,0,4.24l-3.64,3.64c-1.27-1.55-2.69-2.98-4.24-4.24l3.64-3.64Z"/><path d="M38,0c1.66,0,3,1.34,3,3v5.15c-.99-.1-1.99-.15-3-.15s-2.01.05-3,.15V3c0-1.66,1.34-3,3-3Z"/></svg>