<?xml version="1.0" encoding="UTF-8"?><svg id="a" xmlns="http://www.w3.org/2000/svg" viewBox="0 0 92.16 92.08"><path d="M2.11,41.13c-.44-.41-1.21-.39-1.7.05-.5.44-.54,1.13-.1,1.54l5.89,5.46c.44.41,1.21.39,1.7-.05.5-.44.54-1.13.1-1.54l-5.89-5.46Z"/><path d="M12.55,35.81c-.08-.6-.68-1.07-1.35-1.04-.67.02-1.14.53-1.06,1.12l1.06,7.96c.08.6.68,1.07,1.35,1.04.67-.02,1.14-.53,1.06-1.12l-1.06-7.96Z"/><path d="M23.06,39.74c.31-.53.11-1.22-.45-1.53s-1.27-.13-1.58.4l-3.91,6.67c-.31.53-.11,1.22.45,1.53s1.27.13,1.58-.4l3.91-6.67Z"/><path d="M27.02.42c-1.54-.88-3.5-.34-4.38,1.2l-11.11,19.53c-.88,1.54-.34,3.5,1.2,4.38l8.37,4.76c1.54.88,3.5.34,4.38-1.2l3.17-5.58,46.31,26.52,4.76-8.37L33.42,15.14l3.17-5.58c.88-1.54.34-3.5-1.2-4.38L27.02.42ZM31.83,17.93l43.33,24.86-1.59,2.79L30.25,20.72l1.59-2.79Z"/><path d="M58.1,78.08l-3.33,3.02-4.36-4.81c-.56-.62-1.52-.66-2.14-.1-.62.56-.66,1.52-.11,2.14l4.36,4.81-6.7,6.07c-8.51-2.74-17.78-1.69-25.46,2.88-9.25-7.23-13.23-19.32-10.1-30.63l3.25-.56-1.54-8.97-1.49.26c-.83.13-1.61-.43-1.74-1.26-.13-.82.41-1.59,1.23-1.73l5.98-1.03c.83-.13,1.61.43,1.74,1.26.13.82-.41,1.59-1.23,1.73l-1.49.26,1.54,8.97,17.94-3.08.93,5.4,10.71-2.36,9.41-6.64,30.24-5.19c3-.51,5.85,1.5,6.36,4.5.41,2.42-.82,4.82-3.03,5.89l-20.94,10.12-2.18,1.97-4.36-4.81c-.56-.62-1.52-.66-2.14-.1-.62.56-.66,1.52-.1,2.14l4.36,4.81-3.33,3.02-4.36-4.81c-.56-.62-1.52-.66-2.14-.1-.62.56-.66,1.52-.11,2.14l4.36,4.81Z"/></svg>