<?xml version="1.0" encoding="UTF-8"?><svg id="a" xmlns="http://www.w3.org/2000/svg" viewBox="0 0 95.01 88.7"
   width="100" height="100" preserveAspectRatio="xMidYMax meet"><path d="M94.1,15.8c-.8-1.1-2.1-1.7-3.4-1.7H20.7l-1.8-7.9c-.8-3.7-4-6.2-7.8-6.2h-6.9C1.9,0,0,1.9,0,4.2s1.9,4.2,4.2,4.2h6.5l2.1,9.3v.6c0,.9.3,1.7.7,2.3l3.6,16.2,3.3,14.7c-3.1,2.3-5.1,6-5.1,10.2,0,6.4,4.7,11.7,10.9,12.6-1.2,1.5-1.9,3.4-1.9,5.5,0,4.9,4,8.9,8.9,8.9s8.9-4,8.9-8.9c0-2-.7-3.9-1.8-5.4h22c-1.1,1.5-1.8,3.3-1.8,5.4,0,4.9,4,8.9,8.9,8.9s8.9-4,8.9-8.9c0-2-.7-3.9-1.8-5.4h2.01c2.3,0,4.2-1.9,4.2-4.2s-1.9-4.2-4.2-4.2H28c-2.3,0-4.2-1.9-4.2-4.2s1.9-4.2,4.2-4.2h52.8c1.9,0,3.6-1.3,4.1-3.1l10-34.9c.3-1.3,0-2.7-.8-3.8h0ZM82.5,31.8h-13.5l.6-9.2h15.5l-2.6,9.2ZM48,49l-.5-8.7h12.4l-.6,8.7h-11.3ZM28.5,49l-2-8.7h12.5l.5,8.7h-11ZM47.1,31.8l-.5-9.2h14.6l-.7,9.2h-13.4ZM38.1,22.6l.5,9.2h-14l-2.1-9.2h15.6ZM67.8,49l.6-8.7h11.7l-2.5,8.7h-9.8Z"/></svg>