<?xml version="1.0" encoding="UTF-8"?><svg id="a" xmlns="http://www.w3.org/2000/svg" viewBox="0 0 100 100"><path d="M49.34,72.98v14.06c0,.88-.74,1.62-1.62,1.62h-4.59c-3.11,0-5.63,2.52-5.63,5.63v3.26c0,1.62,1.33,2.96,2.96,2.96h45.13c1.62,0,2.96-1.33,2.96-2.96h0v-3.26c0-3.11-2.52-5.63-5.63-5.63h-4.59c-.88,0-1.62-.74-1.62-1.62h0v-14.65"/><path d="M53.34,75.2h-11.69c-2.22,0-3.85-1.78-3.85-3.85h0v-25.89c0-2.22,1.78-3.85,3.85-3.85h46.9c4.3,0,7.84,3.55,7.84,7.84v17.91c0,4.3-3.55,7.84-7.84,7.84h-19.53"/><path d="M2.73,49.45c2.07,9.47,11.84,18.2,26.93,19.39,2.22.15,3.85-1.62,3.85-3.7v-15.69c0-2.22-1.78-3.85-3.85-3.85H6.28c-2.22,0-3.99,1.78-3.55,3.85Z"/></svg>