<?xml version="1.0" encoding="UTF-8"?><svg id="a" xmlns="http://www.w3.org/2000/svg" viewBox="0 0 85.96 54.01"><path d="M42.81,28.77v12.89c0,.81-.68,1.49-1.49,1.49h-4.21c-2.85,0-5.16,2.31-5.16,5.16v2.99c0,1.49,1.22,2.71,2.71,2.71h41.39c1.49,0,2.71-1.22,2.71-2.71h0v-2.99c0-2.85-2.31-5.16-5.16-5.16h-4.21c-.81,0-1.49-.68-1.49-1.49h0v-13.43"/><path d="M46.47,30.8h-10.72c-2.04,0-3.53-1.63-3.53-3.53h0V3.53c0-2.04,1.63-3.53,3.53-3.53h43.01c3.94,0,7.19,3.26,7.19,7.19v16.42c0,3.94-3.26,7.19-7.19,7.19h-17.91"/><path d="M.06,7.19c1.9,8.68,10.86,16.69,24.7,17.78,2.04.14,3.53-1.49,3.53-3.39V7.19c0-2.04-1.63-3.53-3.53-3.53H3.32C1.28,3.66-.34,5.29.06,7.19Z"/></svg>