<?xml version="1.0" encoding="UTF-8"?><svg id="a" xmlns="http://www.w3.org/2000/svg" viewBox="0 0 72 80.85"
   width="100" height="100" preserveAspectRatio="xMidYMax meet"><path d="M61.79,66.48c4.41-7.12,10.21-20,10.21-28.36C72,16.39,56.52,0,36,0S0,16.39,0,38.12c0,8.36,5.8,21.24,10.21,28.36l-.7.7c-1.49,1.5-2.32,3.54-2.31,5.65,0,4.41,3.58,7.98,7.99,7.98,2.11,0,4.13-.84,5.62-2.32l5.69-5.69c3.1-3.15,2.2-8.06-.31-11.4-.06-.12-.14-.22-.22-.32-3.99-4.76-9.91-16.43-9.91-22.79,0-12.7,8.57-22.28,19.94-22.28s19.94,9.58,19.94,22.28c0,6.37-5.92,18.04-9.91,22.79-.08.09-.15.2-.21.3-2.52,3.34-3.43,8.27-.32,11.43l5.68,5.68c3.09,3.12,8.13,3.15,11.26.05,1.52-1.51,2.37-3.56,2.36-5.71.02-2.12-.81-4.15-2.31-5.65l-.7-.7Z"/></svg>