<?xml version="1.0" encoding="UTF-8"?><svg id="a" xmlns="http://www.w3.org/2000/svg" viewBox="0 0 69.03 92.04"><path d="M7.67,61.36v30.68h19.17v-11.51c0-4.24,3.43-7.67,7.67-7.67s7.67,3.43,7.67,7.67v11.51h19.17v-30.68H7.67Z"/><path d="M61.36,0v15.34h-7.67V0h-7.67v15.34h-7.67V0h-7.67v15.34h-7.67V0h-7.67v15.34h-7.67V0H0v23.01l7.67,7.67v23.01h53.69v-23.01l7.67-7.67V0h-7.67ZM26.85,42.19h-7.67v-11.51c0-2.12,1.71-3.83,3.83-3.83s3.83,1.72,3.83,3.83v11.51ZM49.86,42.19h-7.67v-11.51c0-2.12,1.71-3.83,3.83-3.83s3.83,1.72,3.83,3.83v11.51Z"/></svg>