<?xml version="1.0" encoding="UTF-8"?><svg id="a" xmlns="http://www.w3.org/2000/svg" viewBox="0 0 100 100"><path d="M95.07,47.79c-1.3-1.15-2.81-1.71-4.11-1.97-.4-4.27-1.81-7.27-4.21-8.92-.86-.59-1.75-.94-2.61-1.14-.95-7.12-6.73-7.64-8.3-7.64-.04-.36-.09-.74-.17-1.12-.74-3.42-3.14-6.46-7.14-9.04-4.19-2.71-8.16-3.59-11.79-2.64-2.44.64-4.3,2.01-5.63,3.33-7.85-2.12-11.62,2.91-12.51,4.36-1.44-.44-3.14-.72-5.17-.72-5.11,0-8.78,1.35-10.91,4.02-1.07,1.34-1.59,2.82-1.83,4.16-3.08,1.05-5.22,2.79-6.35,5.2-1.78,3.81-.48,7.99-.11,9.01-.36.13-.71.28-1.05.48-1.75,1-2.91,2.73-3.47,5.14-2.08.24-4.51,1.03-5.84,3.3-1.6,2.73-1.12,6.04-.14,8.22.13.28.26.55.41.8-.24.39-1.36,2.38-.81,4.78.43,1.87,1.74,3.47,3.92,4.76,1.95,1.16,3.67,1.74,5.13,1.74.51,0,.99-.07,1.44-.21.9-.29,1.47-.81,1.79-1.21.73.52,1.66.93,2.83.93h.27c2.67-.14,3.9-2.06,4.25-3.23.39.07.76.11,1.11.11,1.54,0,2.65-.63,3.39-1.29-.13.77-.32,1.48-.56,1.97-.8,1.69-.67,6.09,1.16,8.69,1.11,1.58,2.69,2.32,4.57,2.12.76-.07,1.49-.17,2.18-.25,4.59-.55,6.63-.65,7.15,2.55.58,3.64-1.49,4.42-5.25,5.86-.36.14-.74.29-1.13.44-4.02,1.58-8.76,9.71-8.76,9.71h44.68s-6.19-3.71-6.44-7.31c-.32-4.62-2.59-6.65-4.43-8.28-1.26-1.12-2.26-2.02-2.4-3.48-.38-4.05-.55-5.9-8.54-10.72-1.52-.92-2.23-1.81-2.11-2.66.17-1.19,1.84-2.31,3.69-3.17.04.79.26,1.98,1.09,3.09,1.06,1.4,2.78,2.26,5.12,2.54,5.11.63,7.38-1.07,8.22-2.02,1.26,1.24,5.02,4.46,10.28,4.46.52,0,1.06-.03,1.61-.1,4.55-.57,7.18-1.74,9.07-3.56.15,0,.36.02.64.02,1.45,0,4.42-.31,6.89-2.49,2.55-2.26,3.85-5.86,3.85-10.71,0-3.51-1-6.18-2.97-7.92h0ZM46.53,67.49c-.19,1.31.69,2.55,2.61,3.71,7.54,4.55,7.68,6.12,8.03,9.93.17,1.86,1.42,2.97,2.74,4.16,1.78,1.59,3.79,3.38,4.07,7.57.2,2.92,2.42,5.03,4.02,6.18h-3.57c-2.69-1.9-5.03-7.7-6.34-8.27-1.52-.66-2.31-5.55-2.31-5.55-.33,6.87,1.26,5.16,3.37,9.06,1.38,2.54,2.3,4.02,2.78,4.77h-4.4c-.84-1.71-2.63-5.05-2.93-3.21-.4,2.41-2.36,1.9-2.05.96,1.07-3.26.66-5.09.66-5.09-.52,2.93-2.63,5.9-3.78,7.35h-10.27c.64-.7,1.76-1.93,3.74-4.11,5.99-6.57,2.91-8.72,2.91-8.72.22,3,.05,4.45-4.71,7.93-1.57,1.14-3,2.69-4.36,2.69s-.3-3.22-.3-3.22c-2.36,1.3-2.84,4.45-2.94,5.43h-4.48c.96-1.81,3.66-6.38,6.94-7.67.39-.15.76-.3,1.12-.44,3.71-1.41,6.63-2.53,5.91-7.01-.7-4.35-4.06-3.95-8.32-3.44-.68.08-1.4.17-2.16.24-1.5.15-2.71-.41-3.6-1.68-1.64-2.34-1.68-6.35-1.07-7.63.86-1.8,1.38-6.34-.14-7.79-.46-.44-1.29-.82-2.64-.1-2.8,1.48-6.24,1.32-7.43,1.21,0-.3-.02-.59-.05-.86.21.02.41.04.62.04,2.39,0,4.33-1.61,4.43-1.69l1.08-.91-1.41-.02c-1.07-.02-2.91-1.44-3.68-2.12.03-.35.03-.67,0-.94.29-.1.59-.2.89-.32,1.15,2.9,5.59,3.14,5.78,3.15l1.1.05-.65-.89c-.9-1.24-.34-4.49.02-5.94.46.07.95.13,1.46.13h.22c-.77,2.21-.78,4.2-.03,5.77.68,1.42,1.98,2.48,3.68,2.99,1.76.53,1.55,2.31.96,5.95-.18,1.12-.38,2.37-.53,3.73-.16,1.53.19,2.57,1.03,3.1.41.26.9.36,1.41.36,1.93,0,4.28-1.41,4.61-1.62l.48-.3-.33-.46c-2.35-3.3-1.85-6.64-1.01-8.86,1.38-3.67,4.34-6.16,6.42-6.65,1.19-.28,1.95-1,2.15-2.02.34-1.72-.98-3.83-2.45-4.87-1.28-.91-2.64-1.07-3.74-.43-2.31,1.34-5.97-.99-7.43-2.04.26-.21.48-.41.68-.61,1.34.54,2.41.74,3.22.74,1.09,0,1.77-.34,2.14-.64.71-.56,1.04-1.44.88-2.35-.17-.93-.8-1.67-1.66-1.95-1.81-.58-3.92-2.07-4.71-2.67.05-.45.06-.86.06-1.14.26-.05.5-.1.73-.16.51.64,1.88,2.16,3.49,2.16.35,0,.71-.07,1.07-.24,3.33-1.54,3.62-3.83,3.58-4.78.43-.03.89-.09,1.38-.17-.17,2.07-1.21,3.04-2.13,3.9-.76.71-1.49,1.38-1.56,2.48-.12,1.82,1.7,2.29,3.46,2.73,1.01.26,2.05.52,2.93,1.02.42.24.77.32,1.05.32.31,0,.55-.11.72-.23,1.11-.81.67-3.46.5-4.26-.6-2.65.81-4.35.96-4.52.44.07.9.12,1.38.13-1.31,1.4-1.17,3.34-1.1,4.22,0,.14.02.32.03.52.07,1.34.18,3.59,1.27,4.58.36.33.79.49,1.28.49h.12c2.26-.12,2.62-3.33,2.69-4.29.43-.02.9-.07,1.42-.2.08,1.43-1.12,3.25-2.29,5.02-1.4,2.11-2.72,4.1-2.29,5.85.27,1.09.95,1.54,1.46,1.74.31.11.64.16.99.16,2.3,0,5.44-2.09,6.81-3.1.82-.6,1.29-1.39,1.38-2.34.18-1.81-1.07-3.74-1.8-4.7.27-.12.55-.27.81-.45.98,1.23,3.14,3.58,5.59,3.99.19.03.36.05.55.05,2.71,0,4.43-3.45,4.9-4.5.26.06.53.12.81.16-.03.36.02.78.27,1.21.02.05.07.09.1.13-1.9,1.89-2.66,3.2-2.26,3.88.42.7,1.51.35,1.97.2,3.2-1.02,4.38.6,4.42.67h0c.19.33.46.64.8.93-.21.25-.4.51-.57.79-.65-.85-1.74-1.96-2.73-1.49-.93.43-2.85,1.33-6.7.21-3.21-.94-3.98.91-4.66,2.54-.29.7-.6,1.42-1.09,1.99-.75.86-1.4,1.69-1.11,2.51.32.9,1.59,1.4,5.05,1.98.56.1,1.1.14,1.6.14,1.3,0,2.39-.31,3.25-.95.83-.6,1.26-1.36,1.5-1.93.24.1.49.2.78.29-.89.99-1.88,2.4-1.32,3.3.21.34.59.49,1.09.49,1.03,0,2.53-.62,3.88-1.31.24.37.55.74.97,1.05-.99.75-2.84,1.83-4.61,1.19-2.97-1.08-7.02-.39-8.87.29-1.22.46-1.64.26-3.74-1.72-2.28-2.16-6.09-.57-6.18-.53-.85.21-8.28,2.28-8.76,5.61h0v-.02ZM37.53,74.04c-1.4.77-3.51,1.57-4.43.98-.48-.3-.66-1-.54-2.09.14-1.33.34-2.58.52-3.68.22-1.38.43-2.64.43-3.73.4.15.9.28,1.51.28.42,0,.9-.07,1.4-.23-.87,2.98-.5,5.94,1.1,8.46h.01Z"/><path d="M47.83,55.76s1.98-4.32-4.36-6.17c0,0,4.67,1.94,4.36,6.17Z"/><path d="M58.1,56.73c-8.56,3.31-7.67-2.69-7.67-2.69-1.7,1.07-.18,3.48-.18,3.48-10.31.97-9.87,10.58-9.87,10.58.22-2.51,3.74-9.7,9.83-9.52,6.09.19,7.89-1.85,7.89-1.85h0Z"/><path d="M43.42,69.43c.73,4.03,7.8,4.71,11.83,12.34,0,0,.13-3.61-6.74-8.06-8.71-5.64-1.12-10.51-1.12-10.51,0,0-4.69,2.2-3.97,6.23h0Z"/><path d="M46.16,77.39s-2.64,2.64,1.68,3.97c4.32,1.32,1.63-4.89-1.68-3.97Z"/><path d="M48.98,82.72c-6.54-2.16-5.08-4.71-4.83-5.06-1.71,2.23-.55,4.15,4.44,5.94,5.02,1.81-3.22,10.27-3.22,10.27,0,0,10.67-8.81,3.62-11.15h0Z"/><path d="M50.07,76.77s3,3.17,2.08,5,3.35,2.27-2.91,9.58c0,0,5.98-4.18,3.66-8.84-.65-1.3,1.06-2.56-2.83-5.75h0Z"/><path d="M39.99,76.2c-2.55.35-6.87,2.95-8.86-.18,0,0,0,2.2,2.51,2.07s6.79-.31,7.8-1.67c1.02-1.37-1.06-4.89-1.06-4.89,0,0,2.16,4.32-.4,4.67h.01Z"/><path d="M62.06,61.55s-1.74-2.58-5.64-1.08c0,0,3.17-.59,5.64,1.08Z"/></svg>