<?xml version="1.0" encoding="UTF-8"?><svg id="a" xmlns="http://www.w3.org/2000/svg" viewBox="0 0 60 90"
   width="100" height="100" preserveAspectRatio="xMidYMax meet"><path d="M30,0C13.33,0,0,14.36,0,32.01c0,7.53,2.4,14.54,5.84,20.26h-.03l21.62,36.29c.86,1.42,2.71,1.86,4.12,1,.41-.25.75-.59,1-1l21.62-36.29h-.03c3.45-5.71,5.84-12.73,5.84-20.26C60,14.36,46.67,0,30,0ZM30,6c13.23,0,24,11.34,24,26.01,0,6.25-2.02,12.28-4.97,17.16,0,.01,0,.02,0,.03l-19.03,31.95-19.03-31.95s0-.02,0-.03c-2.95-4.89-4.97-10.91-4.97-17.16,0-14.67,10.77-26.01,24-26.01ZM30,14c-6.04,0-11,4.96-11,11-.02,1.66,1.3,3.02,2.96,3.04,1.66.02,3.02-1.3,3.04-2.96,0-.03,0-.06,0-.08,0-2.8,2.2-5,5-5,1.62,0,2.94.49,3.75,1.16s1.25,1.45,1.25,2.84c0,.2.05.18-.34.56-.39.38-1.2.91-2.19,1.5s-2.15,1.21-3.25,2.22c-1.1,1.01-2.22,2.72-2.22,4.72v4c-.02,1.66,1.3,3.02,2.96,3.04,1.66.02,3.02-1.3,3.04-2.96,0-.03,0-.06,0-.08v-4s-.12.08.28-.28c.4-.36,1.23-.89,2.25-1.5s2.2-1.28,3.31-2.38,2.16-2.83,2.16-4.85c0-3.02-1.35-5.75-3.44-7.47-2.09-1.73-4.77-2.53-7.56-2.53h0ZM30,42.01c-1.66,0-3,1.34-3,3s1.34,3,3,3,3-1.34,3-3-1.34-3-3-3Z"/></svg>