<?xml version="1.0" encoding="UTF-8"?><svg id="a" xmlns="http://www.w3.org/2000/svg" viewBox="0 0 54.19 97.61"><path d="M52.97,91.52h-3.27l-4.55-41.2h-6.09l1.78,16.14-11.51-9.44,8.18-6.7h-4.47s-5.94,4.87-5.94,4.87l-5.94-4.87h-4.47l8.18,6.7-11.51,9.44,1.78-16.14h-6.09l-4.55,41.2H1.22c-.67,0-1.22.55-1.22,1.22v3.65c0,.66.55,1.21,1.23,1.21h12.62c.67,0,1.22-.55,1.22-1.22v-3.65c0-.67-.55-1.22-1.22-1.22h-.91s14.16-10.69,14.16-10.69l14.16,10.7h-.91c-.67,0-1.22.55-1.22,1.22v3.65c0,.67.55,1.22,1.23,1.22h12.62c.67,0,1.22-.55,1.22-1.22v-3.65c0-.67-.55-1.22-1.22-1.22h0ZM27.42,20.38c3.55,0,6.43,2.88,6.43,6.43s-2.88,6.43-6.43,6.43-6.43-2.88-6.43-6.43,2.88-6.43,6.43-6.43ZM4.69,40.27h44.81c1.68,0,3.05,1.37,3.05,3.05v1.1c0,1.68-1.37,3.05-3.05,3.05H4.69c-1.68,0-3.05-1.37-3.05-3.05v-1.1c0-1.68,1.37-3.05,3.05-3.05ZM9.35,13.35h36.13c1.37,0,2.5-1.13,2.5-2.5s-1.13-2.5-2.5-2.5h-2.33C39.74,3.31,33.96,0,27.42,0s-12.32,3.31-15.73,8.35h-2.33c-1.37,0-2.5,1.13-2.5,2.5s1.13,2.5,2.5,2.5h0ZM43.75,37.43v-3.99h-9.85c-1.67,1.64-3.96,2.65-6.49,2.65s-4.81-1.01-6.49-2.65h-9.85v3.99h32.67ZM43.75,31v-8.38h-8.06c.64,1.26,1,2.68,1,4.19s-.36,2.93-1,4.19h8.06ZM19.14,22.63h-8.05v8.38h8.05c-.64-1.26-1-2.68-1-4.19s.36-2.93,1-4.19h0ZM43.75,20.19v-3.99H11.09s0,3.98,0,3.98h9.85c1.67-1.64,3.96-2.65,6.49-2.65s4.81,1.01,6.49,2.65h9.84ZM29.45,79.04l11.79-8.91,2.15,19.45-13.94-10.54ZM27.1,58.86l11.68,9.57-11.68,8.82-11.67-8.82,11.67-9.57ZM24.74,79.04l-13.94,10.54,2.15-19.45,11.79,8.91Z" fill-rule="evenodd"/></svg>