<?xml version="1.0" encoding="UTF-8"?><svg id="a" xmlns="http://www.w3.org/2000/svg" viewBox="0 0 100 100"><path d="M19.6,78.21h8.52v5.06h-8.52s0-5.06,0-5.06ZM50.28,69.78v5.06h-13.64v-5.06h13.64ZM77.54,91.68h-6.82v-5.06h6.82s0,5.06,0,5.06ZM53.69,91.68v-5.06h13.64v5.06h-13.64ZM36.64,91.68v-5.06h13.64v5.06h-13.64ZM62.21,78.21v5.06h-13.64v-5.06s13.64,0,13.64,0ZM77.54,83.27h-11.93v-5.06h11.93s0,5.06,0,5.06ZM53.69,74.84v-5.06h13.64v5.06h-13.64ZM45.16,78.21v5.06h-13.64v-5.06s13.64,0,13.64,0ZM19.6,86.64h13.64v5.06h-13.64v-5.06ZM45.16,95.05v5.06h-13.64v-5.06h13.64ZM48.57,95.05h13.64v5.06h-13.64s0-5.06,0-5.06ZM65.61,95.05h11.93v5.06h-11.93v-5.06ZM77.54,74.84h-6.82v-5.06h6.82s0,5.06,0,5.06ZM74.13,12.5c0-.93.77-1.69,1.7-1.69s1.7.76,1.7,1.69v43.81h-3.41s0-43.81,0-43.81ZM70.72,20.92v35.38h-3.41v-8.43c0-.93-.77-1.69-1.7-1.69h-1.7v-3.37c-.01-3.07-2.11-5.74-5.11-6.5v-10.35h6.82c.94,0,1.7-.76,1.7-1.69v-3.37h3.41ZM57.1,39.45c1.88,0,3.41,1.51,3.41,3.37v3.37h-6.82v-3.37c0-1.86,1.53-3.37,3.41-3.37ZM35.64,22.61l6.82-6.74h3.7l-6.82,6.74h-3.7ZM50.98,15.87h3.7l-6.82,6.74h-3.7s6.82-6.74,6.82-6.74ZM59.5,15.87h3.7l-6.82,6.74h-3.7s6.82-6.74,6.82-6.74ZM63.9,19.93v2.67h-2.7l2.7-2.67ZM63.9,49.57v6.74h-13.64v-6.74s13.64,0,13.64,0ZM37.64,15.87l-4.4,4.35v-4.35h4.4ZM29.83,20.92v3.37c0,.93.77,1.69,1.7,1.69h23.86v10.35c-3.01.77-5.1,3.44-5.11,6.5v3.37h-1.7c-.94,0-1.7.76-1.7,1.69v8.43h-20.45V20.92h3.41ZM19.6,12.5c0-.93.77-1.69,1.7-1.69s1.7.76,1.7,1.69v43.81h-3.41V12.5ZM14.48,59.67h68.18v6.74H14.48v-6.74ZM33.23,69.78v5.06h-13.63v-5.06h13.64-.01ZM19.6,95.05h8.52v5.06h-8.52s0-5.06,0-5.06Z"/><path d="M80.95,20.92h5.11v6.74c0,.93.77,1.69,1.7,1.69h6.82v-3.37h-5.11v-6.74c0-.93-.77-1.69-1.7-1.69h-6.82s0,3.37,0,3.37Z"/></svg>