<?xml version="1.0" encoding="UTF-8"?><svg id="a" xmlns="http://www.w3.org/2000/svg" viewBox="0 0 67.79 98.89"><path d="M33.9,27.75c3.59,0,6.5,2.91,6.5,6.5s-2.91,6.5-6.5,6.5-6.5-2.91-6.5-6.5,2.91-6.5,6.5-6.5ZM33.9,31.65c1.44,0,2.6,1.16,2.6,2.6s-1.16,2.6-2.6,2.6-2.6-1.16-2.6-2.6,1.16-2.6,2.6-2.6Z" fill-rule="evenodd"/><path d="M62.16,91.61v-3.97c0-.89-.72-1.61-1.61-1.61H7.24c-.89,0-1.61.72-1.61,1.61v3.97h56.53Z" fill-rule="evenodd"/><path d="M3.98,93.31h59.83c.89,0,1.61.72,1.61,1.61v2.36c0,.89-.72,1.61-1.61,1.61H3.98c-.89,0-1.61-.72-1.61-1.61v-2.36c0-.89.72-1.61,1.61-1.61h0Z" fill-rule="evenodd"/><path d="M11.88,84.33h44.03l-3.24-23.11-1.6-1.6-11.13-11.15-1.2-1.2h-8.54l-15.13,14.39s-3.18,22.68-3.18,22.68ZM32.28,61.24h3.23c.89,0,1.61-.72,1.61-1.61v-2.46c0-.89-.72-1.61-1.61-1.61h-3.23c-.89,0-1.61.72-1.61,1.61v2.46c0,.89.72,1.61,1.61,1.61ZM28.5,80.92h10.8v-11.9c0-.89-.72-1.61-1.61-1.61h-7.59c-.89,0-1.61.72-1.61,1.61,0,0,0,11.9,0,11.9Z" fill-rule="evenodd"/><polygon points="30.2 47.26 38.74 47.26 34.58 43.09 30.2 47.26" fill-rule="evenodd"/><path d="M40.6,18.64l-.3-.62c-3.88-2.5-9.65-2.17-12.79,0l-.3.62,6.7,6.7,6.7-6.7Z" fill-rule="evenodd"/><polygon points="20.41 28.11 18.35 34.76 17.6 41.67 25.31 33.62 20.41 28.11" fill-rule="evenodd"/><polygon points="50.19 41.67 48.97 33.59 47.31 27.72 42.48 33.62 50.19 41.67" fill-rule="evenodd"/><path d="M32.34,26.2l-5.93-5.93L6.61.47c-.63-.63-1.65-.63-2.28,0L.47,4.34c-.63.63-.63,1.65,0,2.28l21.92,21.92,3.59,3.59c.81-3.01,3.28-5.33,6.37-5.92Z" fill-rule="evenodd"/><path d="M45.4,28.53l21.92-21.92c.63-.63.63-1.65,0-2.28l-3.87-3.87c-.63-.63-1.65-.63-2.28,0l-19.8,19.8-5.93,5.93c3.09.59,5.56,2.92,6.37,5.92,0,0,3.59-3.59,3.59-3.59Z" fill-rule="evenodd"/><path d="M50.71,44.17l-8.68-8.88c-.42,3.31-2.82,6.01-5.97,6.87l5.08,5.09,11.13,11.15,8.91,8.92c.63.63,1.65.63,2.28,0l3.87-3.87c.63-.63.62-1.64,0-2.28l-16.61-17.01Z" fill-rule="evenodd"/><path d="M27.72,47.26l5.12-4.87c-3.69-.47-6.62-3.4-7.09-7.1l-8.68,8.88L.47,61.18c-.62.63-.63,1.65,0,2.28l3.87,3.87c.63.63,1.65.63,2.28,0l8.83-8.4s12.28-11.67,12.28-11.67Z" fill-rule="evenodd"/></svg>